<svg width="26" height="26" viewBox="0 0 26 26" fill="none" xmlns="http://www.w3.org/2000/svg">
<circle cx="13" cy="13" r="13" fill="white"/>
<path d="M7.2491 18C6.93141 18 6.62816 17.8731 6.39711 17.6418C6.1444 17.3881 6 17.0373 6 16.6642V9.33582C6 8.59701 6.56318 8 7.2491 8H18.7509C19.4368 8 20 8.59701 20 9.33582V16.6642C20 17.403 19.4368 18 18.7509 18H7.2491ZM7.40072 17.2537H18.5848L14.2744 13.7836L13.2274 14.7388C13.1625 14.7985 13.0758 14.8358 12.9892 14.8358C12.9025 14.8358 12.8159 14.7985 12.7509 14.7388L11.704 13.7836L7.3935 17.2537H7.40072ZM14.8375 13.2761L19.2708 16.8507V9.21642L14.8375 13.2761ZM6.72202 16.8507L11.1552 13.2761L6.72202 9.21642V16.8507ZM12.9964 13.9552L18.6859 8.74627H7.31408L13.0036 13.9552H12.9964Z" fill="#28292B"/>
</svg>
