<svg xmlns="http://www.w3.org/2000/svg" width="200" height="110" fill="none"><path fill="#fff" d="M134.489 32.439c1.466-.8 3.013-1.387 4.692-1.814 1.36-.32 2.773-.507 4.24-.507 1.04 0 2.106.08 3.173.24 3.093.48 5.919 1.734 8.425 3.708a21.777 21.777 0 0 1 5.893 7.07l.08.133s.08.133.107.214c.079.16.159.32.266.56.187.426.32.747.4.96.053.107.213.694.213.72.107.347.24.987.24.987l-3.173.614-.16-.4a27.184 27.184 0 0 0-1.973-3.842 18.874 18.874 0 0 0-2.693-3.28c-1.999-1.868-4.266-3.122-6.852-3.736-1.28-.32-2.586-.48-3.866-.48-1.28 0-2.64.16-4 .507-2.106.533-4.052 1.52-5.865 2.961-1.814 1.467-3.227 3.148-4.293 5.095-1.12 2.054-1.84 4.162-2.187 6.323-.16 1.04-.24 2.054-.24 3.068 0 1.12.107 2.214.294 3.307a19.682 19.682 0 0 0 2.053 5.87 16.896 16.896 0 0 0 3.786 4.748c1.52 1.334 3.279 2.374 5.279 3.121 1.653.614 3.413.934 5.333.934.373 0 .746 0 1.146-.027a12.939 12.939 0 0 0 4.56-1.067 16.026 16.026 0 0 0 4.133-2.588 18.593 18.593 0 0 0 3.279-3.654 17.769 17.769 0 0 0 2.133-4.349l.32-.987 3.12 1.147-.267.907-.053.16c-.32.96-.694 1.895-1.147 2.802-.453.907-.96 1.76-1.493 2.587-1.04 1.494-2.213 2.801-3.573 3.922-1.36 1.12-2.799 2.054-4.373 2.747a21.041 21.041 0 0 1-4.879 1.494 20.42 20.42 0 0 1-3.359.294c-.614 0-1.2-.027-1.814-.08a17.436 17.436 0 0 1-7.012-2.215 22.01 22.01 0 0 1-5.653-4.641 18.486 18.486 0 0 1-2.373-3.335 32.752 32.752 0 0 1-1.679-3.681c-.827-2.294-1.253-4.642-1.253-7.016v-.32a22.907 22.907 0 0 1 1.173-7.043 22.393 22.393 0 0 1 3.226-6.242 20.392 20.392 0 0 1 4.959-4.856c.534-.373 1.093-.693 1.653-1.013m65.538-2.348h-4.559l-16.611 19.394s-.107.08-.16.134a1.333 1.333 0 0 0-.267.373c-.08.16-.106.347-.106.507 0 .133 0 .24.053.347.053.16.107.267.187.373.053.053.08.107.133.16l15.864 21.555h4.293L182.429 50.82 200 30.12h-.027Zm-28.556 0v42.843h3.226V30.118h-3.226Zm7.866-14.219c-.027-1.467-.267-2.934-.773-4.321-.107-.347-.267-.694-.4-1.014-.16-.32-.347-.64-.534-.96-.32-.667-.8-1.227-1.253-1.814-1.84-2.321-4.426-3.869-7.119-4.989-2.693-1.12-5.519-1.787-8.399-2.187A62.03 62.03 0 0 0 152.193 0h-2.16c-.72 0-1.439.027-2.159.053-1.44.107-2.88.134-4.32.294-5.732.507-11.412 1.44-17.038 2.667-11.251 2.428-22.263 5.95-32.982 10.111a276.51 276.51 0 0 0-15.918 6.776l-3.92 1.84-3.865 1.975-8.746 4.855v28.731H41.168v-27.21h-3.36v42.95h3.36V60.582h19.917v12.458h3.36V31.532l7.119-4.428 3.76-2.055 3.812-1.947a292.208 292.208 0 0 1 15.518-7.176c10.479-4.455 21.277-8.243 32.316-10.964 5.519-1.36 11.118-2.454 16.744-3.121 1.413-.187 2.826-.294 4.24-.427.72-.053 1.413-.08 2.133-.134.72-.053 1.413-.08 2.133-.08a56.225 56.225 0 0 1 8.479.347c2.799.32 5.599.88 8.238 1.894 2.613 1.014 5.173 2.428 7.013 4.589.426.56.906 1.093 1.253 1.707.187.293.373.614.533.907.134.32.32.64.427.987.533 1.334.8 2.748.88 4.188.16 2.882-.48 5.79-1.467 8.51 1.067-2.694 1.787-5.575 1.733-8.51l-.026.08ZM90.895 93.236c-12.559 5.015-25.517 9.15-38.742 11.684-6.612 1.254-13.305 2.081-19.944 2.161-3.333 0-6.64-.16-9.892-.667-3.226-.507-6.4-1.387-9.172-2.855-1.387-.747-2.64-1.627-3.68-2.694-.533-.533-.986-1.12-1.413-1.734-.4-.614-.746-1.28-.986-1.92-1.013-2.695-.72-5.95.133-9.017.853-3.095 2.24-6.136 3.893-8.99 1.04-1.814 2.56-4.109 4.08-6.243a81.048 81.048 0 0 1 2.559-3.415H3.759v-18.86h15.358v-3.521H3.76V33.399h24.797v-3.28H0V72.96h10.292a53.889 53.889 0 0 0-2.586 4.295C5.999 80.377 4.533 83.66 3.6 87.233a25.086 25.086 0 0 0-.8 5.522c-.027 1.894.213 3.895.96 5.763.373.96.88 1.787 1.413 2.614.56.8 1.173 1.547 1.866 2.214 1.387 1.334 2.96 2.401 4.586 3.228 3.28 1.627 6.773 2.481 10.239 2.934 3.466.454 6.932.561 10.372.454 6.905-.24 13.678-1.254 20.37-2.694 13.358-2.882 26.29-7.363 38.822-12.699 12.505-5.362 24.663-11.63 36.128-18.994-11.865 6.643-24.103 12.592-36.662 17.66Z"/><path fill="url(#a)" d="m75.35 55.568 20.397-24.73 20.397 24.73h-4.186L95.747 35.934 79.536 55.568H75.35Zm4.346 16.727 16.05-19.474 16.052 19.474h4.186L95.72 47.725l-20.264 24.57h4.24Z"/><defs><linearGradient id="a" x1="95.747" x2="95.747" y1="30.812" y2="72.295" gradientUnits="userSpaceOnUse"><stop stop-color="#FDE005"/><stop offset=".99" stop-color="#00CF35"/><stop offset="1" stop-color="#00CF35"/></linearGradient></defs></svg>