<svg xmlns="http://www.w3.org/2000/svg" width="180" height="99" fill="none"><g clip-path="url(#a)"><path fill="#414042" d="M128.568 65.857c-.552 0-1.104-.024-1.656-.072a15.945 15.945 0 0 1-6.384-2.015 20.112 20.112 0 0 1-5.136-4.22 15.925 15.925 0 0 1-2.16-3.046 29.62 29.62 0 0 1-1.512-3.334 18.438 18.438 0 0 1-1.128-6.38v-.287c.024-2.23.408-4.365 1.08-6.404a20.473 20.473 0 0 1 2.928-5.66c1.272-1.75 2.784-3.237 4.512-4.412.48-.336.984-.648 1.512-.912a17.3 17.3 0 0 1 4.272-1.63c2.112-.504 4.392-.6 6.744-.216 2.832.431 5.4 1.583 7.68 3.381a20.476 20.476 0 0 1 5.352 6.404l.072.12s.072.12.096.191c.072.144.144.312.24.504v.048c.192.36.312.623.384.815.048.12.192.648.192.672.096.312.216.887.216.887l.072.312-3.384.648-.24-.576a21.316 21.316 0 0 0-1.752-3.382 18.552 18.552 0 0 0-2.376-2.901c-1.752-1.631-3.72-2.71-6-3.262a14.542 14.542 0 0 0-6.888 0c-1.872.48-3.552 1.319-5.136 2.59s-2.832 2.734-3.768 4.46a17.054 17.054 0 0 0-2.136 8.275c0 .983.096 1.942.264 2.902.336 1.822.936 3.55 1.824 5.156a14.884 14.884 0 0 0 3.336 4.173c1.32 1.175 2.88 2.086 4.608 2.734 1.728.647 3.672.911 5.688.767 1.392-.072 2.712-.36 4.008-.935a14.997 14.997 0 0 0 3.624-2.254 15.275 15.275 0 0 0 2.88-3.214c.816-1.2 1.44-2.47 1.872-3.813l.384-1.175 3.336 1.223-.36 1.223a19.57 19.57 0 0 1-1.056 2.542 20.713 20.713 0 0 1-1.368 2.35 17.892 17.892 0 0 1-3.24 3.598 17.423 17.423 0 0 1-3.984 2.518 17.966 17.966 0 0 1-4.44 1.367c-1.008.168-2.04.264-3.072.264v-.024Zm-7.704-36.262c-.504.264-.984.576-1.44.887a17.992 17.992 0 0 0-4.368 4.27 20.023 20.023 0 0 0-2.832 5.515 20.545 20.545 0 0 0-1.032 6.212v.288c0 2.062.36 4.148 1.104 6.163.408 1.127.912 2.23 1.488 3.262a15.688 15.688 0 0 0 2.064 2.925c1.464 1.655 3.144 3.046 5.016 4.102 1.872 1.079 3.96 1.726 6.144 1.942 1.536.144 3.072.072 4.56-.192a19.164 19.164 0 0 0 4.32-1.319 17.668 17.668 0 0 0 3.864-2.422 18.021 18.021 0 0 0 3.144-3.453c.48-.744.936-1.511 1.344-2.303a18.51 18.51 0 0 0 1.032-2.47l.048-.144.144-.527-2.232-.816-.192.6a15.953 15.953 0 0 1-1.944 3.957 15.875 15.875 0 0 1-3 3.333 16.232 16.232 0 0 1-3.768 2.35c-1.344.576-2.76.912-4.2.984-.36 0-.72.024-1.056.024-1.728 0-3.384-.288-4.896-.84a15.202 15.202 0 0 1-4.824-2.853h-.024a16.224 16.224 0 0 1-3.432-4.317 17.38 17.38 0 0 1-1.872-5.324 17.847 17.847 0 0 1-.264-2.998c0-.912.072-1.847.216-2.806.312-1.967.984-3.91 1.968-5.756.96-1.775 2.28-3.334 3.912-4.653 1.632-1.319 3.432-2.23 5.352-2.71 2.4-.6 4.8-.6 7.176-.024 2.4.576 4.44 1.703 6.264 3.406.984.96 1.8 1.967 2.472 2.998.672 1.031 1.272 2.206 1.8 3.477l.048.12 2.28-.432c-.048-.191-.096-.407-.144-.575 0-.048-.144-.528-.192-.624-.072-.168-.192-.431-.336-.791v-.048a2.929 2.929 0 0 1-.24-.48c-.024-.072-.072-.12-.096-.168l-.072-.12a19.726 19.726 0 0 0-5.208-6.235c-2.184-1.727-4.68-2.83-7.392-3.262-2.28-.36-4.488-.287-6.528.216-1.464.36-2.856.888-4.128 1.583l-.048.048Zm-.144-.264c-.504.288-1.008.576-1.488.912a18.155 18.155 0 0 0-4.44 4.34 20.58 20.58 0 0 0-2.88 5.588 20.569 20.569 0 0 0-1.056 6.308v.288c0 2.11.384 4.22 1.128 6.283.408 1.127.912 2.23 1.488 3.31a15.362 15.362 0 0 0 2.112 2.997 19.508 19.508 0 0 0 5.064 4.15 15.492 15.492 0 0 0 6.264 1.99c.552.048 1.08.072 1.632.072 1.008 0 2.016-.096 3-.264a18.434 18.434 0 0 0 4.368-1.343c1.416-.623 2.712-1.463 3.912-2.47a17.26 17.26 0 0 0 3.192-3.526c.48-.743.936-1.51 1.344-2.326.408-.815.744-1.655 1.032-2.518l.048-.144.24-.815-2.784-1.032-.288.888a15.827 15.827 0 0 1-1.92 3.885c-.84 1.223-1.8 2.326-2.952 3.285a14.45 14.45 0 0 1-3.696 2.303c-1.32.575-2.688.887-4.08.96-.336 0-.696.023-1.032.023-1.728 0-3.312-.288-4.776-.815-1.8-.672-3.36-1.583-4.728-2.782a15.364 15.364 0 0 1-3.384-4.245 17.555 17.555 0 0 1-1.848-5.252 17.069 17.069 0 0 1-.048-5.708c.312-1.943.96-3.837 1.944-5.66a15.147 15.147 0 0 1 3.84-4.557c1.608-1.295 3.36-2.182 5.256-2.662 1.2-.288 2.376-.431 3.576-.431 1.2 0 2.304.143 3.456.407a13.666 13.666 0 0 1 6.144 3.334c.96.959 1.776 1.918 2.424 2.95a22.944 22.944 0 0 1 1.776 3.43l.144.335 2.832-.552s-.144-.551-.216-.887c0-.024-.168-.528-.192-.648a19.14 19.14 0 0 0-.36-.863c-.096-.192-.168-.36-.24-.504-.024-.072-.072-.12-.096-.192l-.072-.12a19.39 19.39 0 0 0-5.28-6.307 15.93 15.93 0 0 0-7.536-3.31c-.96-.143-1.92-.215-2.856-.215-1.296 0-2.568.144-3.792.455-1.488.36-2.904.912-4.2 1.607m58.176 36.598-14.88-20.074 15.984-18.826h-4.848L160.2 44.392l-.144.144c-.12.12-.216.264-.288.408l-.144.264h.048c0 .12-.024.215-.024.335 0 .144 0 .264.072.408.048.144.096.264.192.408.048.072.096.12.12.144l14.28 19.402h4.584l-.024-.024Zm.48-38.612h-4.08l-14.856 17.34s-.096.071-.144.119c-.072.096-.168.192-.24.336a1.038 1.038 0 0 0-.096.455c0 .12 0 .216.048.312.048.144.096.24.168.312.048.048.072.096.12.144l14.184 19.282h3.864l-14.664-19.786 15.72-18.514h-.024ZM156.984 65.88V26.957h-3.504V65.88h3.504Zm-3.192-38.612v38.324h2.904V27.269h-2.904ZM58.32 65.977V28.732l6.216-3.861 3.36-1.823 3.408-1.727a245.87 245.87 0 0 1 13.872-6.403c10.152-4.293 19.608-7.507 28.896-9.81 5.304-1.318 10.2-2.23 14.976-2.781.84-.12 1.704-.192 2.544-.264.408-.024.84-.072 1.248-.12l1.224-.072c.216 0 .456 0 .696-.048.6-.024 1.248-.072 1.872-.072.552 0 1.104-.024 1.656-.024 1.872 0 3.84.12 5.904.336 2.736.312 5.136.84 7.296 1.679 2.712 1.031 4.728 2.35 6.144 4.029.072.096.168.192.24.288.312.383.624.767.864 1.199.048.096.12.192.168.288.096.167.216.335.288.503.024.072.072.144.096.24.096.216.192.408.264.624.432 1.103.696 2.326.768 3.645.12 2.278-.6 6.403-1.584 9.161l.528-1.223c1.104-2.806 1.944-5.564 1.872-7.962-.048-1.415-.288-2.758-.72-3.957-.072-.24-.192-.48-.288-.72l-.096-.24c-.096-.191-.216-.383-.312-.575-.048-.096-.12-.192-.168-.288-.24-.503-.576-.96-.912-1.39a11.706 11.706 0 0 0-.24-.313c-1.488-1.87-3.624-3.357-6.48-4.556-2.256-.936-4.728-1.583-7.584-1.967-2.616-.36-5.16-.551-7.512-.551h-.816c-.456 0-.888 0-1.368.024h-.672c-.432 0-.84 0-1.272.048l-1.248.071c-.864.048-1.752.096-2.616.192-4.848.432-9.864 1.223-15.288 2.375-9.48 2.062-19.176 5.012-29.592 9.065a239.43 239.43 0 0 0-14.256 6.068l-3.504 1.654-3.456 1.775-7.992 4.437v25.589H37.512V26.933h-3.6v39.02h3.6V54.8h17.232v11.152h3.6l-.024.024Zm102.504-51.443a11.799 11.799 0 0 0-.696-3.861c-.096-.312-.24-.624-.36-.912-.144-.287-.312-.575-.48-.863-.288-.6-.72-1.103-1.104-1.63-1.656-2.063-3.984-3.454-6.36-4.462-2.4-.983-4.944-1.606-7.512-1.942a52.093 52.093 0 0 0-7.728-.528h-1.944c-.648 0-1.296.024-1.944.048-1.296.096-2.568.12-3.864.264-5.136.456-10.224 1.295-15.264 2.374-10.08 2.183-19.92 5.324-29.544 9.042a246.58 246.58 0 0 0-14.256 6.067l-3.504 1.655-3.456 1.75-7.824 4.342v25.709H37.152V27.245h-3v38.42h3V54.513h17.832v11.152h3V28.54l6.36-3.957 3.36-1.847 3.408-1.727a242.667 242.667 0 0 1 13.896-6.403c9.384-3.981 19.056-7.363 28.944-9.809 4.944-1.223 9.96-2.182 15-2.806 1.272-.168 2.52-.264 3.792-.384.624-.048 1.272-.072 1.896-.12a25.048 25.048 0 0 1 1.896-.071 49.907 49.907 0 0 1 7.584.311c2.52.288 5.016.792 7.368 1.68 2.352.886 4.632 2.181 6.264 4.124.384.504.816.96 1.104 1.535.168.264.336.552.48.815.12.288.288.576.384.888.48 1.199.72 2.47.792 3.741.144 2.59-.432 5.156-1.32 7.603.936-2.399 1.608-4.989 1.536-7.603l.096.024ZM29.184 98.977c5.568-.192 11.568-.984 18.288-2.423 11.064-2.398 22.44-6.115 34.8-11.367 11.664-4.989 22.344-10.673 32.184-16.956l2.04-1.415c-11.064 6.163-24.216 12.327-34.92 16.62-12.312 4.916-23.64 8.322-34.632 10.432-6.552 1.247-12.384 1.87-17.808 1.943h-.456c-3.096 0-5.832-.192-8.328-.6-3.24-.503-5.88-1.343-8.112-2.518-1.248-.671-2.352-1.463-3.24-2.374a11.585 11.585 0 0 1-1.224-1.487 9.348 9.348 0 0 1-.864-1.679c-.768-2.062-.744-4.796.12-7.866.696-2.518 1.824-5.132 3.456-7.986.84-1.487 2.16-3.502 3.624-5.564a53.11 53.11 0 0 1 2.28-3.022l.384-.48H3.96V45.951h13.752V42.21H3.96V30.506h22.2v-3.55H0v38.925h8.952a60.795 60.795 0 0 0-2.04 3.405c-1.728 3.166-2.952 6.116-3.696 8.97-.456 1.798-.696 3.43-.72 5.012-.024 1.943.264 3.717.888 5.276.312.768.696 1.487 1.296 2.398.576.792 1.128 1.463 1.704 2.015 1.176 1.127 2.52 2.086 4.176 2.95 2.616 1.295 5.64 2.182 9.264 2.662 2.256.288 4.584.456 7.152.456.696 0 1.44 0 2.184-.025l.024-.023Zm52.488-15.253c-11.256 4.484-22.848 8.178-34.68 10.456-5.928 1.127-11.904 1.87-17.88 1.943-2.976 0-5.952-.144-8.856-.6-2.88-.456-5.736-1.223-8.208-2.542-1.224-.672-2.352-1.463-3.312-2.422-.48-.48-.888-1.008-1.248-1.535a9.065 9.065 0 0 1-.888-1.727c-.912-2.398-.648-5.3.12-8.058.768-2.782 2.016-5.468 3.48-8.034.912-1.607 2.304-3.694 3.648-5.588a59.246 59.246 0 0 1 2.28-3.046H3.672V45.687h13.752v-3.141H3.672V30.243h22.2v-2.95H.288v38.324h9.216a62.819 62.819 0 0 0-2.328 3.837c-1.536 2.782-2.832 5.732-3.672 8.922a22.312 22.312 0 0 0-.72 4.94c-.024 1.703.192 3.477.864 5.156.336.84.768 1.607 1.248 2.327.504.719 1.056 1.39 1.68 1.99 1.224 1.2 2.64 2.135 4.104 2.878 2.952 1.463 6.072 2.206 9.168 2.638 3.12.408 6.216.504 9.288.408 6.168-.216 12.264-1.127 18.24-2.398 11.976-2.59 23.544-6.572 34.752-11.368 11.208-4.797 22.08-10.409 32.352-16.98-10.632 5.924-21.576 11.272-32.832 15.78l.024-.023Z"/><path fill="url(#b)" d="m67.752 50.004 18.264-22.112 18.264 22.112h-3.768l-14.496-17.58-14.496 17.58h-3.768Zm3.888 14.965 14.376-17.412 14.376 17.412h3.768L86.016 43 67.872 64.969h3.768Z"/></g><defs><linearGradient id="b" x1="86.016" x2="86.016" y1="27.892" y2="64.969" gradientUnits="userSpaceOnUse"><stop stop-color="#FDE005"/><stop offset=".99" stop-color="#00CF35"/><stop offset="1" stop-color="#00CF35"/></linearGradient><clipPath id="a"><path fill="#fff" d="M0 0h180v99H0z"/></clipPath></defs></svg>