<svg xmlns="http://www.w3.org/2000/svg" width="71" height="69" fill="none"><path fill="#fff" d="M30.436 9.428a4.621 4.621 0 0 1-1.523.133c-.508-.049-.925-.169-1.252-.36l.12-.619c.306.17.683.282 1.13.34.453.049.902.016 1.347-.098.426-.11.757-.25.991-.42.24-.178.394-.373.464-.583.076-.212.082-.427.018-.645-.077-.262-.217-.453-.419-.573a1.603 1.603 0 0 0-.7-.223 6.443 6.443 0 0 0-.888-.04c-.318.006-.637.009-.956.008a4.346 4.346 0 0 1-.92-.115 1.927 1.927 0 0 1-.756-.373c-.214-.186-.374-.458-.48-.816a1.704 1.704 0 0 1-.007-.978c.098-.328.306-.622.625-.883.318-.267.764-.474 1.338-.622.381-.098.775-.14 1.182-.128.404.006.77.067 1.096.183l-.076.628a3.427 3.427 0 0 0-1.054-.183 3.647 3.647 0 0 0-.98.107c-.406.104-.726.245-.959.421-.232.177-.386.375-.46.593-.07.21-.071.431-.003.661.077.263.213.455.409.576.202.12.44.194.71.22.28.025.577.035.895.029.318-.006.634-.005.95.004.32.007.624.046.909.117.29.063.54.185.753.364.22.178.38.442.484.794a1.69 1.69 0 0 1-.002.98c-.1.322-.312.617-.635.886-.32.26-.77.466-1.35.615ZM39.039 8.308a3.982 3.982 0 0 1-1.438-.353 3.469 3.469 0 0 1-1.102-.823 3.458 3.458 0 0 1-.684-1.177 3.646 3.646 0 0 1-.164-1.434c.038-.512.163-.978.375-1.398.219-.42.503-.78.853-1.077a3.541 3.541 0 0 1 1.222-.663 3.89 3.89 0 0 1 1.477-.174c.506.033.975.15 1.408.352.433.195.79.472 1.07.83l-.503.439a2.515 2.515 0 0 0-.901-.69 3.078 3.078 0 0 0-1.103-.272c-.42-.027-.814.02-1.184.144a2.73 2.73 0 0 0-.983.547 2.899 2.899 0 0 0-.697.877 2.938 2.938 0 0 0-.305 1.133c-.032.418.013.809.133 1.17.127.356.314.676.56.959.247.276.545.5.893.669.349.163.733.258 1.152.285.4.026.777-.016 1.132-.127.356-.11.688-.302.996-.576l.434.499c-.331.319-.726.55-1.185.694-.458.144-.944.2-1.456.166ZM44.64 8.53l3.208-6.221 2.39 1.073c.541.243.962.538 1.263.885.304.34.476.717.518 1.13.051.41-.04.84-.272 1.29-.226.438-.528.77-.906.994a2.39 2.39 0 0 1-1.27.327c-.475-.009-.983-.135-1.524-.378l-2.016-.905.457-.167-1.174 2.275-.675-.303ZM49 10.488l-.478-2.995.73.328.487 3-.74-.333Zm-2.54-3.877-.14-.446 1.998.897c.638.287 1.192.368 1.66.243.476-.123.84-.43 1.094-.921.257-.498.288-.958.094-1.381-.188-.42-.6-.773-1.24-1.06l-1.997-.897.461-.176-1.93 3.741ZM55.641 14.68a3.95 3.95 0 0 1-.783-1.25 3.311 3.311 0 0 1-.197-1.332c.038-.444.161-.868.37-1.27.22-.402.531-.762.934-1.08a3.736 3.736 0 0 1 1.289-.673 3.85 3.85 0 0 1 1.404-.129c.48.045.938.179 1.374.403.442.22.841.527 1.2.922.353.39.609.807.768 1.25a3.09 3.09 0 0 1-.173 2.587 3.422 3.422 0 0 1-.927 1.087 3.697 3.697 0 0 1-1.303.672c-.46.135-.929.178-1.404.13a3.855 3.855 0 0 1-1.367-.396 4.153 4.153 0 0 1-1.185-.92Zm.518-.408c.282.31.597.554.944.73.357.175.725.279 1.103.31.389.033.768-.004 1.139-.11.376-.11.729-.295 1.058-.555.33-.26.582-.552.756-.875.179-.328.28-.67.306-1.03a2.364 2.364 0 0 0-.146-1.066 2.893 2.893 0 0 0-.606-.996 3.194 3.194 0 0 0-.958-.731 2.953 2.953 0 0 0-1.11-.319 3.231 3.231 0 0 0-1.139.11 3.04 3.04 0 0 0-1.05.55 2.867 2.867 0 0 0-.756.875c-.174.332-.279.677-.314 1.035-.025.359.026.717.153 1.075.131.353.338.685.62.997ZM60.648 20.693l6.684-2.077.249.697-6.074 1.887 1.318 3.692-.612.19-1.566-4.39ZM62.927 27.556l7-.075.008.74-6.36.069.05 3.92-.64.006-.058-4.66ZM17.785 54.818c.4.332.727.712.982 1.139.244.428.374.821.39 1.18l-.616.227c-.024-.33-.138-.689-.34-1.073a3.554 3.554 0 0 0-.85-1.017c-.34-.282-.65-.47-.934-.568-.294-.097-.554-.119-.78-.064-.232.05-.426.156-.582.32-.189.198-.279.409-.27.631.002.219.069.443.2.672.125.234.28.476.466.725.185.25.368.5.55.754.175.259.315.522.418.79.099.263.131.527.098.794-.043.266-.194.535-.451.805-.24.25-.527.422-.864.515-.346.093-.725.08-1.137-.037-.416-.112-.853-.358-1.31-.737a4.03 4.03 0 0 1-.782-.87 3.037 3.037 0 0 1-.459-.965l.6-.267c.092.336.237.647.434.931.193.281.409.521.65.721.323.269.629.45.918.542.288.093.55.111.786.057.227-.054.423-.168.588-.342.189-.198.282-.406.279-.624a1.478 1.478 0 0 0-.208-.679 7.684 7.684 0 0 0-.481-.724c-.186-.249-.364-.5-.535-.755a3.686 3.686 0 0 1-.411-.782 1.474 1.474 0 0 1-.105-.787c.034-.267.177-.532.43-.798.235-.246.525-.415.871-.508.341-.089.723-.074 1.145.043.412.117.849.367 1.31.75ZM11.916 48.901c.271.452.446.909.522 1.372.071.466.049.914-.066 1.342a3.229 3.229 0 0 1-.604 1.184 3.554 3.554 0 0 1-1.119.89c-.455.238-.92.38-1.397.428a3.802 3.802 0 0 1-1.398-.136 3.784 3.784 0 0 1-1.259-.66 4 4 0 0 1-.991-1.125 3.803 3.803 0 0 1-.507-1.346c-.083-.46-.053-.9.09-1.32l.66.184a2.35 2.35 0 0 0-.07 1.106c.061.36.195.71.4 1.053.217.36.483.66.799.9.31.244.651.418 1.025.523.368.108.748.145 1.14.113.382-.035.76-.15 1.132-.345.372-.195.677-.437.914-.727.228-.292.391-.615.49-.967a2.67 2.67 0 0 0 .056-1.088c-.062-.374-.2-.74-.417-1.1a3.194 3.194 0 0 0-.755-.867 2.884 2.884 0 0 0-1.056-.517l.174-.621c.46.105.88.309 1.264.611s.708.673.973 1.113ZM10.096 44.289l-6.947.854-.367-2.595c-.083-.587-.058-1.104.074-1.55.126-.445.351-.802.677-1.07.318-.274.729-.442 1.231-.504.49-.06.93.003 1.32.19.382.181.7.472.95.87.246.4.41.894.493 1.481l.309 2.188-.384-.285 2.54-.312.104.733Zm-.668-4.733-2.27 2.092-.111-.792 2.268-2.102.113.802ZM7.51 43.86l-.3.37-.307-2.17c-.098-.692-.324-1.198-.679-1.517-.355-.326-.808-.455-1.357-.388-.556.069-.96.303-1.213.704-.255.394-.333.937-.235 1.63l.306 2.169-.393-.284 4.178-.514ZM9.055 31.323c-.163.5-.398.943-.706 1.327a3.823 3.823 0 0 1-1.083.907 3.857 3.857 0 0 1-1.326.424c-.472.053-.956.01-1.45-.13a3.519 3.519 0 0 1-1.273-.641 3.324 3.324 0 0 1-.848-1.04 3.246 3.246 0 0 1-.36-1.318 3.82 3.82 0 0 1 .196-1.471c.163-.5.4-.94.711-1.315a3.569 3.569 0 0 1 1.071-.901c.412-.23.853-.371 1.326-.424.475-.06.959-.019 1.453.121.494.14.92.358 1.28.654.36.289.643.636.848 1.04.207.398.328.834.363 1.307.028.472-.04.959-.202 1.46Zm-.635-.18c.13-.4.182-.787.157-1.16a2.64 2.64 0 0 0-.3-1.051 2.723 2.723 0 0 0-.692-.84 2.935 2.935 0 0 0-1.048-.526 2.984 2.984 0 0 0-1.175-.105 2.88 2.88 0 0 0-1.077.339 2.734 2.734 0 0 0-.875.718c-.25.296-.44.643-.57 1.043-.13.4-.18.79-.15 1.172.022.38.12.734.295 1.06.17.319.4.599.693.841.288.234.634.408 1.038.523.398.113.79.147 1.175.104.387-.05.75-.161 1.087-.336a3.05 3.05 0 0 0 .877-.727c.247-.304.435-.656.565-1.055ZM11.16 23.42l-5.617-4.177.48-.563 5.105 3.794 2.545-2.98.514.381-3.026 3.544ZM14.623 16.817l-4.073-5.692.628-.392 3.7 5.173 3.328-2.073.372.52-3.955 2.464ZM61.895 40.733c.086-.513.25-.994.494-1.444.25-.442.527-.772.834-.99l.516.368c-.278.209-.533.505-.766.889a3.718 3.718 0 0 0-.454 1.268c-.072.434-.078.793-.017 1.078.066.292.18.514.345.666.163.159.356.254.58.286.271.04.502-.008.693-.142.19-.127.352-.31.486-.546.14-.235.273-.499.395-.79.123-.293.25-.584.38-.875a4.28 4.28 0 0 1 .475-.79c.18-.23.395-.408.646-.533.256-.118.569-.15.939-.096.343.05.641.184.895.402.26.226.444.54.554.939.115.4.125.894.027 1.479a4.177 4.177 0 0 1-.36 1.13 3.36 3.36 0 0 1-.61.922l-.542-.332a3.62 3.62 0 0 0 .89-1.82c.07-.415.07-.765.003-1.05-.067-.286-.186-.509-.355-.668a1.095 1.095 0 0 0-.602-.28c-.271-.039-.501.005-.691.133-.192.134-.354.319-.488.556-.135.243-.264.51-.387.802-.123.292-.252.58-.387.863-.136.29-.294.55-.474.78a1.68 1.68 0 0 1-.636.534c-.251.126-.558.162-.92.11a1.708 1.708 0 0 1-.895-.413c-.253-.225-.437-.541-.552-.948-.109-.4-.114-.896-.016-1.488ZM59.339 48.444c.261-.457.58-.841.956-1.152a3.797 3.797 0 0 1 1.247-.674 3.793 3.793 0 0 1 1.394-.166c.477.037.946.17 1.405.398.46.228.84.517 1.138.866.296.355.506.745.63 1.172.122.431.15.88.083 1.345-.06.468-.22.93-.482 1.388-.25.44-.565.816-.941 1.127-.371.313-.785.528-1.241.643l-.188-.618c.405-.118.75-.3 1.035-.544a3.19 3.19 0 0 0 .734-.884 2.98 2.98 0 0 0 .383-1.114 2.492 2.492 0 0 0-.08-1.088 2.643 2.643 0 0 0-.512-.957 2.835 2.835 0 0 0-.92-.702 3.097 3.097 0 0 0-1.148-.326 3.264 3.264 0 0 0-1.137.138 3.128 3.128 0 0 0-1.012.545c-.304.25-.56.558-.768.923a3.008 3.008 0 0 0-.376 1.062c-.052.36-.018.73.102 1.11l-.654.199a2.697 2.697 0 0 1-.129-1.324c.066-.465.227-.92.481-1.367ZM56.584 52.851l4.718 5.17-2.05 1.63c-.465.37-.93.615-1.394.738-.46.128-.9.129-1.32.004-.421-.116-.802-.36-1.144-.735-.332-.364-.529-.752-.589-1.163-.06-.402.011-.807.215-1.216.208-.403.544-.79 1.009-1.158l1.73-1.375-.029.456-1.726-1.89.58-.46Zm-3.743 2.974 3.122.756-.627.498-3.129-.75.634-.504Zm4.849-.667.494.053-1.715 1.363c-.548.435-.86.878-.934 1.329-.08.454.066.886.439 1.295.377.413.813.62 1.307.618.488.002 1.006-.214 1.555-.65l1.714-1.362-.022.464-2.838-3.11ZM46.062 59.314a4.162 4.162 0 0 1 1.496-.138c.484.055.935.191 1.352.41.413.225.773.517 1.08.876.303.366.531.794.684 1.284.153.49.206.963.16 1.417a3.33 3.33 0 0 1-.406 1.28c-.224.4-.526.741-.905 1.024a3.822 3.822 0 0 1-1.339.643 3.95 3.95 0 0 1-1.489.126 3.561 3.561 0 0 1-1.34-.402 3.481 3.481 0 0 1-1.08-.877 3.627 3.627 0 0 1-.693-1.282 3.479 3.479 0 0 1-.153-1.429c.044-.46.18-.888.406-1.28a3.34 3.34 0 0 1 .895-1.02c.38-.283.824-.494 1.332-.632Zm.197.63c-.406.11-.758.278-1.057.505-.304.234-.542.51-.716.826a2.729 2.729 0 0 0-.324 1.04c-.036.377.009.765.134 1.166.125.4.31.747.555 1.04.247.299.538.537.873.715.33.187.69.3 1.079.339.385.047.78.015 1.185-.095s.76-.282 1.063-.517c.306-.228.547-.504.725-.829.174-.316.282-.663.324-1.04a2.865 2.865 0 0 0-.13-1.156 3.033 3.033 0 0 0-.555-1.04 3.23 3.23 0 0 0-.876-.725 3.047 3.047 0 0 0-1.089-.336 3.266 3.266 0 0 0-1.191.107ZM38.183 60.94l-.721 6.963-.737-.067.655-6.326-3.904-.352.066-.637 4.641.42ZM30.645 60.171l-2.94 6.353-.686-.277 2.671-5.772-3.636-1.465.269-.58 4.322 1.741Z"/></svg>