<svg width="94" height="70" viewBox="0 0 94 70" fill="none" xmlns="http://www.w3.org/2000/svg">
<path d="M74.1025 10.6018C70.9054 8.97591 64.9084 8.96247 64.6569 8.96247C63.8956 8.96247 63.2801 9.58729 63.2801 10.3599C63.2801 11.1325 63.8956 11.7574 64.6569 11.7574C66.2058 11.7574 70.6936 11.9992 72.8713 13.1011C73.0699 13.2018 73.2817 13.2489 73.4869 13.2489C73.99 13.2489 74.4798 12.9667 74.7181 12.4762C75.0557 11.7842 74.7843 10.9444 74.1025 10.6018ZM92.6166 52.2766H84.3028C84.8522 51.3763 85.1633 50.3215 85.1633 49.1928V36.1455C85.1633 33.532 83.4357 31.2074 80.9601 30.4952L75.9956 29.0575C75.3271 28.8627 74.8571 28.2378 74.8571 27.5257V26.3567C75.3205 26.0342 75.764 25.6646 76.1744 25.2615C78.1734 23.293 79.2722 20.6527 79.2722 17.8242V15.1636L79.8216 14.0484C80.4239 12.8256 80.7416 11.455 80.7416 10.0845V2.88895C80.7416 2.11633 80.1261 1.49151 79.3648 1.49151H66.1197C61.3009 1.49151 57.3823 5.46885 57.3823 10.3599V10.4405C57.3823 11.576 57.6471 12.7181 58.1501 13.7393L58.8518 15.1704V17.4546C58.8518 21.0692 60.6059 24.3142 63.2668 26.2693V27.5257C63.2668 28.2311 62.7968 28.8627 62.1283 29.0575L57.1639 30.4952C54.6883 31.2141 52.9606 33.5387 52.9606 36.1455V37.3414H52.868C51.2992 37.3414 50.0217 38.6381 50.0217 40.2303V52.1825C50.0217 52.1825 50.0217 52.2497 50.0217 52.2766H43.0781C43.6275 51.3763 43.9386 50.3215 43.9386 49.1928V36.1455C43.9386 33.532 42.211 31.2074 39.7354 30.4952L34.7709 29.0575C34.718 29.0441 34.665 29.0239 34.6121 28.997C36.9685 28.5334 38.8881 27.9221 40.1193 27.4719C40.8342 27.2099 41.41 26.6859 41.7344 25.9871C42.0587 25.2951 42.0918 24.5158 41.8403 23.7969C40.629 20.3906 39.7089 14.6866 39.5169 11.885C39.0734 5.10606 34.0494 0 27.8671 0C21.6781 0 16.6607 5.10606 16.1907 11.885C15.9987 14.6933 15.0787 20.3906 13.8673 23.7969C13.6092 24.5158 13.6489 25.2884 13.9732 25.9804C14.2976 26.6791 14.8735 27.2099 15.5883 27.4652C16.8195 27.9153 18.7391 28.52 21.0956 28.9903C21.0426 29.0105 20.9896 29.0306 20.9367 29.0508L15.9723 30.4885C13.4967 31.2074 11.769 33.532 11.769 36.1388V49.1861C11.769 50.3148 12.0868 51.3696 12.6295 52.2699H1.3768C0.61559 52.2699 0 52.8947 0 53.6673C0 54.44 0.61559 55.0648 1.3768 55.0648H2.94557V68.6026C2.94557 69.3752 3.56116 70 4.32237 70C5.08359 70 5.69918 69.3752 5.69918 68.6026V61.0375H17.6602V68.6026C17.6602 69.3752 18.2758 70 19.037 70C19.7982 70 20.4138 69.3752 20.4138 68.6026V64.0273H35.3203V68.6026C35.3203 69.3752 35.9359 70 36.6971 70C37.4583 70 38.0739 69.3752 38.0739 68.6026V61.0375H88.3008V68.6026C88.3008 69.3752 88.9164 70 89.6776 70C90.4388 70 91.0544 69.3752 91.0544 68.6026V55.0648H92.6232C93.3844 55.0648 94 54.44 94 53.6673C94 52.8947 93.3844 52.2699 92.6232 52.2699L92.6166 52.2766ZM61.6186 17.4546V14.8412C61.6186 14.6262 61.5657 14.4112 61.473 14.2163L60.6257 12.4897C60.3146 11.8581 60.1491 11.1527 60.1491 10.4405V10.3599C60.1491 7.01411 62.8299 4.2864 66.133 4.2864H78.0013V10.0912C78.0013 11.0318 77.7828 11.9656 77.3724 12.8055L76.6774 14.2163C76.5847 14.4112 76.5318 14.6262 76.5318 14.8412V17.8309C76.5318 19.8935 75.7309 21.8217 74.268 23.2594C72.8118 24.6972 70.8856 25.4564 68.8468 25.3892C64.8621 25.2683 61.6252 21.7075 61.6252 17.4546H61.6186ZM72.3484 28.9567L71.2165 30.1056C70.6407 30.6901 69.8794 31.0059 69.0653 31.0059C68.2511 31.0059 67.4899 30.6834 66.914 30.1056L65.7821 28.9567C65.9211 28.5536 66.0006 28.1303 66.0138 27.6936C66.8809 27.9825 67.801 28.1572 68.7476 28.1841C68.8535 28.1841 68.9594 28.1841 69.0653 28.1841C70.1111 28.1841 71.1371 28.0228 72.1101 27.7138C72.13 28.1438 72.2094 28.5536 72.3418 28.95L72.3484 28.9567ZM55.7341 36.1455C55.7341 34.7749 56.6409 33.5589 57.9383 33.1826L62.9028 31.7449C63.333 31.6172 63.7302 31.4291 64.0942 31.1873L64.9812 32.0875C66.0734 33.1961 67.5296 33.8075 69.0785 33.8075C70.6274 33.8075 72.077 33.1961 73.1758 32.0875L74.0628 31.1873C74.4203 31.4291 74.824 31.624 75.2543 31.7449L80.2187 33.1826C81.5161 33.5589 82.4229 34.7749 82.4229 36.1455V49.1928C82.4229 50.8926 81.0594 52.2766 79.3847 52.2766H73.4009C73.4009 52.2766 73.4009 52.2161 73.4009 52.1825V49.0988H77.9086C78.6698 49.0988 79.2854 48.4739 79.2854 47.7013V38.7388C79.2854 37.9662 78.6698 37.3414 77.9086 37.3414C77.1474 37.3414 76.5318 37.9662 76.5318 38.7388V46.3039H73.4009V40.2303C73.4009 38.6381 72.1234 37.3414 70.5546 37.3414H55.7407V36.1455H55.7341ZM52.7885 40.2303C52.7885 40.1766 52.8283 40.1363 52.8812 40.1363H70.5414C70.5943 40.1363 70.634 40.1766 70.634 40.2303V52.1825C70.634 52.2363 70.5943 52.2766 70.5414 52.2766H52.8812C52.8283 52.2766 52.7885 52.2363 52.7885 52.1825V40.2303ZM16.515 24.8383C16.515 24.8383 16.4753 24.8047 16.4621 24.7912C16.4488 24.7644 16.4621 24.7509 16.4621 24.7442C17.7595 21.0961 18.7391 15.0427 18.9443 12.0731C19.123 9.52683 20.1093 7.18207 21.731 5.46214C23.3858 3.70861 25.5106 2.78818 27.8737 2.78818C30.2367 2.78818 32.3549 3.71533 34.0097 5.46214C35.6314 7.17535 36.6243 9.52011 36.7964 12.0731C37.0016 15.0427 37.9813 21.0961 39.2786 24.7442C39.2786 24.7442 39.2853 24.7644 39.2786 24.7912C39.272 24.8047 39.2588 24.8316 39.2257 24.8383C37.1208 25.6042 32.8381 26.8874 27.8737 26.8874C22.9026 26.8874 18.6266 25.6042 16.5217 24.8383H16.515ZM17.6602 58.2561H5.69918V55.0782H17.6602V58.2561ZM20.4138 61.2391V41.7286C20.4138 40.8552 21.1154 40.1363 21.9825 40.1363H33.7582C34.6187 40.1363 35.327 40.8484 35.327 41.7286V61.2391H20.4204H20.4138ZM33.7516 37.3414H21.9759C19.593 37.3414 17.6535 39.3099 17.6535 41.7286V52.2833H17.5609C15.8862 52.2833 14.5226 50.8993 14.5226 49.1995V36.1522C14.5226 34.7816 15.4295 33.5656 16.7269 33.1894L21.6913 31.7516C22.8761 31.409 23.8359 30.5893 24.3655 29.5076C25.4775 29.6286 26.6491 29.6957 27.8604 29.6957C29.0718 29.6957 30.2434 29.6218 31.362 29.5076C31.8982 30.5826 32.858 31.4157 34.0296 31.7583L38.994 33.1961C40.2914 33.5723 41.1982 34.7884 41.1982 36.1589V49.2063C41.1982 50.906 39.8347 52.29 38.16 52.29H38.0673V41.7353C38.0673 39.3166 36.1279 37.3481 33.7449 37.3481L33.7516 37.3414ZM38.0739 58.2561V55.0782H88.3008V58.2561H38.0739ZM61.6848 44.7855C62.446 44.7855 63.0616 45.4103 63.0616 46.1829C63.0616 46.9556 62.446 47.5804 61.6848 47.5804C60.9236 47.5804 60.308 46.9556 60.308 46.1829C60.308 45.4103 60.9236 44.7855 61.6848 44.7855Z" fill="#28292B"/>
</svg>
