<svg width="91" height="70" viewBox="0 0 91 70" fill="none" xmlns="http://www.w3.org/2000/svg">
<path d="M43.5454 52.6644V33.1905C43.5454 32.4565 42.9494 31.8629 42.2125 31.8629H6.66479C5.92782 31.8629 5.33183 32.4565 5.33183 33.1905V52.6644C5.33183 53.3984 5.92782 53.992 6.66479 53.992H15.3803C16.1173 53.992 16.7132 53.3984 16.7132 52.6644C16.7132 51.9303 16.1173 51.3367 15.3803 51.3367H7.99775V34.5181H40.8795V51.3367H21.6029C20.8659 51.3367 20.2699 51.9303 20.2699 52.6644C20.2699 53.3984 20.8659 53.992 21.6029 53.992H42.2125C42.9494 53.992 43.5454 53.3984 43.5454 52.6644ZM87.8919 26.6418H82.5601C80.8426 26.6418 79.452 28.0332 79.452 29.7374V29.8459L70.2302 36.2925H66.6543V31.4225C66.6543 28.7353 64.4626 26.5524 61.7646 26.5524H54.4077C58.1823 23.9099 60.656 19.5377 60.656 14.6038C60.656 11.3997 59.6306 8.35508 57.6953 5.80197C57.2531 5.21475 56.4136 5.09986 55.8304 5.54666C55.2408 5.98707 55.1255 6.82321 55.5741 7.40405C57.157 9.49122 57.9965 11.9805 57.9965 14.6038C57.9965 21.1909 52.6134 26.5524 45.9999 26.5524C39.3863 26.5524 34.0032 21.1909 34.0032 14.6038C34.0032 8.01679 39.3863 2.65526 45.9999 2.65526C47.8711 2.65526 49.6655 3.07014 51.3253 3.89352C51.9853 4.21904 52.7864 3.95096 53.1132 3.29353C53.4401 2.63611 53.1709 1.83826 52.5108 1.51274C50.4666 0.51064 48.2749 1.77838e-05 45.987 1.77838e-05C37.8099 -0.0127478 31.0297 6.84874 31.3373 15.0762L27.8896 15.4847C26.6912 10.6593 22.3142 7.07214 17.1042 7.07214C10.9777 7.07214 5.99831 12.0379 5.99831 18.1335C5.99831 21.4972 7.51711 24.5099 9.90106 26.5396H4.88965C2.19169 26.5396 0 28.7225 0 31.4097V65.047C0 67.7341 2.19169 69.917 4.88965 69.917H32.6575C33.3944 69.917 33.9904 69.3234 33.9904 68.5894C33.9904 67.8554 33.3944 67.2618 32.6575 67.2618H4.88965C3.66563 67.2618 2.66592 66.2661 2.66592 65.047V31.4097C2.66592 30.1906 3.66563 29.1949 4.88965 29.1949H61.7646C62.9887 29.1949 63.9884 30.1906 63.9884 31.4097V65.047C63.9884 66.2661 62.9887 67.2618 61.7646 67.2618H38.8801C38.1431 67.2618 37.5471 67.8554 37.5471 68.5894C37.5471 69.3234 38.1431 69.917 38.8801 69.917H61.7646C64.4626 69.917 66.6543 67.7341 66.6543 65.047V60.1769H70.2302L79.452 66.6235V66.9044C79.452 68.6149 80.849 70 82.5601 70H87.8919C89.6094 70 91 68.6086 91 66.9044V29.731C91 28.0204 89.603 26.6354 87.8919 26.6354V26.6418ZM8.66423 18.1463C8.66423 13.5124 12.4516 9.74014 17.1042 9.74014C21.7567 9.74014 25.5441 13.5124 25.5441 18.1463C25.5441 22.7802 21.7567 26.5524 17.1042 26.5524C12.4516 26.5524 8.66423 22.7802 8.66423 18.1463ZM28.2164 18.1463C28.2164 18.1463 28.2164 18.1335 28.2164 18.1271L31.6642 17.7186C32.4588 21.3504 34.6185 24.4844 37.5727 26.5588H24.3137C26.6976 24.5291 28.2164 21.51 28.2164 18.1527V18.1463ZM69.3138 57.5344H66.6479V38.9478H69.3138V57.5344ZM88.3341 66.9171C88.3341 67.1597 88.1354 67.3575 87.8919 67.3575H82.5601C82.3165 67.3575 82.1179 67.1597 82.1179 66.9171V48.2411C82.1179 47.5071 81.5219 46.9135 80.7849 46.9135C80.048 46.9135 79.452 47.5071 79.452 48.2411V63.3874L71.9861 58.1727V38.3095L79.452 33.0947V42.0498C79.452 42.7838 80.048 43.3774 80.7849 43.3774C81.5219 43.3774 82.1179 42.7838 82.1179 42.0498V29.7438C82.1179 29.5012 82.3165 29.3034 82.5601 29.3034H87.8919C88.1354 29.3034 88.3341 29.5012 88.3341 29.7438V66.9171ZM53.7669 53.992C57.9324 53.992 61.3225 50.6155 61.3225 46.4667C61.3225 42.3179 57.9324 38.9414 53.7669 38.9414C49.6014 38.9414 46.2113 42.3179 46.2113 46.4667C46.2113 50.6155 49.6014 53.992 53.7669 53.992ZM53.7669 41.603C56.4649 41.603 58.6565 43.7859 58.6565 46.4731C58.6565 49.1602 56.4649 51.3431 53.7669 51.3431C51.0689 51.3431 48.8773 49.1602 48.8773 46.4731C48.8773 43.7859 51.0689 41.603 53.7669 41.603ZM17.1042 23.0099C19.8021 23.0099 21.9938 20.827 21.9938 18.1399C21.9938 15.4527 19.8021 13.2698 17.1042 13.2698C14.4062 13.2698 12.2145 15.4527 12.2145 18.1399C12.2145 20.827 14.4062 23.0099 17.1042 23.0099ZM17.1042 15.9314C18.3282 15.9314 19.3279 16.9272 19.3279 18.1463C19.3279 19.3654 18.3282 20.3611 17.1042 20.3611C15.8801 20.3611 14.8804 19.3654 14.8804 18.1463C14.8804 16.9272 15.8801 15.9314 17.1042 15.9314ZM45.987 6.1977C41.3345 6.1977 37.5471 9.96992 37.5471 14.6038C37.5471 19.2377 41.3345 23.0099 45.987 23.0099C50.6396 23.0099 54.427 19.2377 54.427 14.6038C54.427 9.96992 50.6396 6.1977 45.987 6.1977ZM45.987 20.3547C42.802 20.3547 40.213 17.7761 40.213 14.6038C40.213 11.4316 42.802 8.85294 45.987 8.85294C49.172 8.85294 51.7611 11.4316 51.7611 14.6038C51.7611 17.7761 49.172 20.3547 45.987 20.3547ZM5.33183 60.6301C5.33183 62.8258 7.1262 64.6129 9.3307 64.6129C11.5352 64.6129 13.3296 62.8258 13.3296 60.6301C13.3296 58.4344 11.5352 56.6472 9.3307 56.6472C7.1262 56.6472 5.33183 58.4344 5.33183 60.6301ZM10.6637 60.6301C10.6637 61.3641 10.0677 61.9577 9.3307 61.9577C8.59373 61.9577 7.99775 61.3641 7.99775 60.6301C7.99775 59.8961 8.59373 59.3025 9.3307 59.3025C10.0677 59.3025 10.6637 59.8961 10.6637 60.6301ZM15.9955 60.6301C15.9955 62.8258 17.7899 64.6129 19.9944 64.6129C22.1989 64.6129 23.9932 62.8258 23.9932 60.6301C23.9932 58.4344 22.1989 56.6472 19.9944 56.6472C17.7899 56.6472 15.9955 58.4344 15.9955 60.6301ZM21.3273 60.6301C21.3273 61.3641 20.7313 61.9577 19.9944 61.9577C19.2574 61.9577 18.6614 61.3641 18.6614 60.6301C18.6614 59.8961 19.2574 59.3025 19.9944 59.3025C20.7313 59.3025 21.3273 59.8961 21.3273 60.6301ZM30.658 64.6129C32.8625 64.6129 34.6569 62.8258 34.6569 60.6301C34.6569 58.4344 32.8625 56.6472 30.658 56.6472C28.4535 56.6472 26.6592 58.4344 26.6592 60.6301C26.6592 62.8258 28.4535 64.6129 30.658 64.6129ZM30.658 59.3025C31.395 59.3025 31.991 59.8961 31.991 60.6301C31.991 61.3641 31.395 61.9577 30.658 61.9577C29.9211 61.9577 29.3251 61.3641 29.3251 60.6301C29.3251 59.8961 29.9211 59.3025 30.658 59.3025ZM48.8837 33.2798C48.8837 32.5458 48.2877 31.9522 47.5507 31.9522C46.8137 31.9522 46.2177 32.5458 46.2177 33.2798C46.2177 34.0139 46.8137 34.6075 47.5507 34.6075C48.2877 34.6075 48.8837 34.0139 48.8837 33.2798ZM55.0999 33.2798C55.0999 32.5458 54.5039 31.9522 53.7669 31.9522C53.0299 31.9522 52.4339 32.5458 52.4339 33.2798C52.4339 34.0139 53.0299 34.6075 53.7669 34.6075C54.5039 34.6075 55.0999 34.0139 55.0999 33.2798ZM61.3225 33.2798C61.3225 32.5458 60.7265 31.9522 59.9895 31.9522C59.2525 31.9522 58.6565 32.5458 58.6565 33.2798C58.6565 34.0139 59.2525 34.6075 59.9895 34.6075C60.7265 34.6075 61.3225 34.0139 61.3225 33.2798ZM37.3228 58.0642C37.3228 58.7982 37.9188 59.3918 38.6558 59.3918H59.9831C60.7201 59.3918 61.3161 58.7982 61.3161 58.0642C61.3161 57.3302 60.7201 56.7366 59.9831 56.7366H38.6558C37.9188 56.7366 37.3228 57.3302 37.3228 58.0642ZM38.6558 64.7023H59.9831C60.7201 64.7023 61.3161 64.1087 61.3161 63.3747C61.3161 62.6407 60.7201 62.0471 59.9831 62.0471H38.6558C37.9188 62.0471 37.3228 62.6407 37.3228 63.3747C37.3228 64.1087 37.9188 64.7023 38.6558 64.7023Z" fill="#28292B"/>
</svg>
