<svg width="56" height="81" viewBox="0 0 56 81" fill="none" xmlns="http://www.w3.org/2000/svg">
<path d="M54.8101 67.9163C54.1569 67.9163 53.6261 68.4473 53.6261 69.1009V77.8604C53.6261 78.2805 53.2819 78.6248 52.862 78.6248H3.13801C2.71805 78.6248 2.37392 78.2805 2.37392 77.8604V20.711C2.37392 20.0574 1.84314 19.5264 1.18988 19.5264C0.536611 19.5264 0.00583273 20.0574 0.00583273 20.711V77.8604C0.00583273 79.5936 1.41152 81 3.14384 81H52.862C54.5943 81 56 79.5936 56 77.8604V69.1009C56 68.4473 55.4692 67.9163 54.816 67.9163H54.8101ZM55.6442 15.1554L40.8466 0.350144C40.6249 0.128386 40.3216 0 40.0067 0H3.13801C1.40569 0 0 1.40641 0 3.13963V15.4414C0 16.095 0.530778 16.626 1.18404 16.626C1.83731 16.626 2.36809 16.095 2.36809 15.4414V3.13963C2.36809 2.71945 2.71222 2.37514 3.13217 2.37514H38.8168V14.0408C38.8168 15.774 40.2225 17.1804 41.9548 17.1804H53.6144V63.8313C53.6144 64.4849 54.1452 65.0159 54.7985 65.0159C55.4517 65.0159 55.9825 64.4849 55.9825 63.8313V15.9899C55.9825 15.6748 55.86 15.3713 55.6325 15.1496L55.6442 15.1554ZM41.1965 14.0408V4.05L51.9463 14.8053H41.9606C41.5407 14.8053 41.1965 14.461 41.1965 14.0408ZM6.87095 55.3636C6.87095 56.8926 8.11332 58.1298 9.63566 58.1298H46.3585C47.8867 58.1298 49.1232 56.8867 49.1232 55.3636V50.9109C49.1232 50.3215 48.9366 49.7788 48.6216 49.3295C48.9366 48.8801 49.1232 48.3374 49.1232 47.748V43.2953C49.1232 42.7059 48.9366 42.1632 48.6216 41.7138C48.9366 41.2645 49.1232 40.7218 49.1232 40.1323V35.6797C49.1232 34.1507 47.8808 32.9135 46.3585 32.9135H37.5511C36.8978 32.9135 36.367 33.4446 36.367 34.0982C36.367 34.7518 36.8978 35.2829 37.5511 35.2829H46.3585C46.5743 35.2829 46.7551 35.4579 46.7551 35.6797V40.1323C46.7551 40.3483 46.5801 40.5292 46.3585 40.5292H17.9706V35.2829H32.2783C32.9316 35.2829 33.4623 34.7518 33.4623 34.0982C33.4623 33.4446 32.9316 32.9135 32.2783 32.9135H9.63566C8.10749 32.9135 6.87095 34.1566 6.87095 35.6797V40.1323C6.87095 40.7218 7.0576 41.2645 7.37257 41.7138C7.0576 42.1632 6.87095 42.7059 6.87095 43.2953V47.748C6.87095 48.3374 7.0576 48.8801 7.37257 49.3295C7.0576 49.7788 6.87095 50.3215 6.87095 50.9109V55.3636ZM9.23904 55.3636V50.9109C9.23904 50.695 9.41402 50.5141 9.63566 50.5141H15.6025V55.7604H9.63566C9.41985 55.7604 9.23904 55.5854 9.23904 55.3636ZM9.23904 47.748V43.2953C9.23904 43.0794 9.41402 42.8985 9.63566 42.8985H15.6025V48.1448H9.63566C9.41985 48.1448 9.23904 47.9697 9.23904 47.748ZM46.3585 42.8985C46.5743 42.8985 46.7551 43.0736 46.7551 43.2953V47.748C46.7551 47.9639 46.5801 48.1448 46.3585 48.1448H17.9706V42.8985H46.3585ZM46.7551 55.3636C46.7551 55.5795 46.5801 55.7604 46.3585 55.7604H17.9706V50.5141H46.3585C46.5743 50.5141 46.7551 50.6892 46.7551 50.9109V55.3636ZM9.23904 35.6738C9.23904 35.4579 9.41402 35.277 9.63566 35.277H15.6025V40.5233H9.6415C9.42568 40.5233 9.24487 40.3483 9.24487 40.1265V35.6738H9.23904ZM17.5565 29.062C23.4476 29.062 28.2421 24.265 28.2421 18.3709C28.2421 12.4768 23.4476 7.67983 17.5565 7.67983C11.6655 7.67983 6.87095 12.4768 6.87095 18.3709C6.87095 24.265 11.6655 29.062 17.5565 29.062ZM17.5565 10.055C22.141 10.055 25.8681 13.784 25.8681 18.3709C25.8681 22.9578 22.141 26.6868 17.5565 26.6868C12.972 26.6868 9.24487 22.9578 9.24487 18.3709C9.24487 13.784 12.972 10.055 17.5565 10.055ZM32.6808 62.349C32.6808 61.6954 32.15 61.1643 31.4967 61.1643H9.589C8.93574 61.1643 8.40496 61.6954 8.40496 62.349C8.40496 63.0026 8.93574 63.5336 9.589 63.5336H31.4967C32.15 63.5336 32.6808 63.0026 32.6808 62.349ZM23.2609 68.0505C23.9142 68.0505 24.445 67.5194 24.445 66.8658C24.445 66.2122 23.9142 65.6812 23.2609 65.6812H20.5954C19.9421 65.6812 19.4113 66.2122 19.4113 66.8658C19.4113 67.5194 19.9421 68.0505 20.5954 68.0505H23.2609ZM9.589 68.0505H16.0283C16.6816 68.0505 17.2124 67.5194 17.2124 66.8658C17.2124 66.2122 16.6816 65.6812 16.0283 65.6812H9.589C8.93574 65.6812 8.40496 66.2122 8.40496 66.8658C8.40496 67.5194 8.93574 68.0505 9.589 68.0505ZM45.5478 61.8063L42.4681 64.8875L41.3015 63.7204C40.8407 63.2594 40.0883 63.2594 39.6217 63.7204C39.1609 64.1814 39.1609 64.9342 39.6217 65.4011L41.6282 67.4086C41.8498 67.6303 42.1531 67.7587 42.4681 67.7587C42.783 67.7587 43.0863 67.6362 43.308 67.4086L47.2276 63.487C47.6884 63.0259 47.6884 62.2731 47.2276 61.8063C46.7668 61.3394 46.0144 61.3452 45.5478 61.8063ZM44.4804 28.3617C44.7953 28.3617 45.0986 28.2391 45.3203 28.0115L47.1168 26.2141C47.5775 25.7531 47.5775 25.0003 47.1168 24.5334C46.656 24.0666 45.9036 24.0724 45.4369 24.5334L44.4745 25.4963L43.5121 24.5334C43.0513 24.0724 42.2989 24.0724 41.8323 24.5334C41.3715 24.9945 41.3715 25.7473 41.8323 26.2141L43.6288 28.0115C43.8504 28.2333 44.1537 28.3617 44.4687 28.3617H44.4804ZM9.589 73.0634H27.9854C28.6387 73.0634 29.1695 72.5323 29.1695 71.8787C29.1695 71.2251 28.6387 70.6941 27.9854 70.6941H9.589C8.93574 70.6941 8.40496 71.2251 8.40496 71.8787C8.40496 72.5323 8.93574 73.0634 9.589 73.0634ZM21.5111 13.5973L19.4988 17.6414H20.9395C21.2486 17.6414 21.4936 17.9332 21.4936 18.2483C21.4936 18.5635 21.2486 18.8553 20.9395 18.8553H18.898L18.3556 19.9349V20.5593H20.9045C21.2311 20.5593 21.4936 20.8686 21.4936 21.1954C21.4936 21.5222 21.2311 21.8198 20.9045 21.8198H18.3556V24.5509C18.3556 25.0236 17.994 25.403 17.5215 25.403C17.0491 25.403 16.6699 25.0295 16.6699 24.5509V21.8198H14.2027C13.8761 21.8198 13.6136 21.528 13.6136 21.1954C13.6136 20.8628 13.8761 20.5593 14.2027 20.5593H16.6699V19.9524L16.2266 18.8553H14.1852C13.8761 18.8553 13.6136 18.5635 13.6136 18.2483C13.6136 17.9332 13.8761 17.6414 14.1852 17.6414H15.4742L13.5261 13.6323C13.2345 13.0429 13.6252 12.3718 14.2785 12.3718C14.6518 12.3718 14.9668 12.5994 15.1126 12.9262L17.5973 18.2775L19.9713 12.9262C20.1171 12.5994 20.397 12.3718 20.7587 12.3718C21.3828 12.3718 21.7911 13.0254 21.5111 13.5973Z" fill="#28292B"/>
</svg>
