<svg width="56" height="79" viewBox="0 0 56 79" fill="none" xmlns="http://www.w3.org/2000/svg">
<path d="M54.8508 72.9046C54.215 72.9046 53.7017 73.4208 53.7017 74.0603V76.6827H2.30417V19.6708C2.30417 19.0313 1.79083 18.5151 1.155 18.5151C0.519167 18.5151 0.00583333 19.0313 0.00583333 19.6708V77.8443C0.00583333 78.4837 0.519167 79 1.155 79H54.8508C55.4867 79 56 78.4837 56 77.8443V74.0662C56 73.4267 55.4867 72.9104 54.8508 72.9104V72.9046ZM54.8508 0H1.14917C0.513333 0 0 0.516263 0 1.15573V14.8895C0 15.529 0.513333 16.0452 1.14917 16.0452C1.785 16.0452 2.29833 15.529 2.29833 14.8895V10.0319H42.7642C43.4 10.0319 43.9133 9.51567 43.9133 8.87621C43.9133 8.23674 43.4 7.72048 42.7642 7.72048H19.4833V2.31732H53.6958V7.72048H47.635C46.9992 7.72048 46.4858 8.23674 46.4858 8.87621C46.4858 9.51567 46.9992 10.0319 47.635 10.0319H53.6958V69.103C53.6958 69.7425 54.2092 70.2587 54.845 70.2587C55.4808 70.2587 55.9942 69.7425 55.9942 69.103V1.15573C55.9942 0.516263 55.4808 0 54.845 0H54.8508ZM17.185 7.71461H2.30417V2.31732H17.185V7.72048V7.71461ZM5.6 3.86024C6.23583 3.86024 6.74917 4.3765 6.74917 5.01597C6.74917 5.65543 6.23583 6.17169 5.6 6.17169C4.96417 6.17169 4.45083 5.65543 4.45083 5.01597C4.45083 4.3765 4.96417 3.86024 5.6 3.86024ZM9.89333 3.86024C10.5292 3.86024 11.0425 4.3765 11.0425 5.01597C11.0425 5.65543 10.5292 6.17169 9.89333 6.17169C9.2575 6.17169 8.74417 5.65543 8.74417 5.01597C8.74417 4.3765 9.2575 3.86024 9.89333 3.86024ZM14.1925 3.86024C14.8283 3.86024 15.3417 4.3765 15.3417 5.01597C15.3417 5.65543 14.8283 6.17169 14.1925 6.17169C13.5567 6.17169 13.0433 5.65543 13.0433 5.01597C13.0433 4.3765 13.5567 3.86024 14.1925 3.86024ZM45.0217 61.8108L38.5642 55.3164L40.9442 52.9228C41.4458 52.4183 41.5975 51.6615 41.3233 50.9986C41.0492 50.3357 40.4133 49.9074 39.7017 49.9074H30.1233C29.155 49.9074 28.3675 50.6994 28.3675 51.6733V61.3063C28.3675 62.022 28.7933 62.6614 29.4525 62.9372C29.6683 63.0252 29.9017 63.0721 30.1233 63.0721C30.5783 63.0721 31.0275 62.8902 31.36 62.5558L33.74 60.1623L40.1975 66.6566C40.8392 67.3019 41.6967 67.6598 42.6067 67.6598C43.5167 67.6598 44.3742 67.3019 45.0158 66.6566C46.3458 65.319 46.3458 63.1484 45.0158 61.8108H45.0217ZM32.935 57.71L30.6775 59.9804V52.2306H38.3833L36.1258 54.501L32.935 57.71ZM43.3942 65.0198C43.1842 65.231 42.91 65.3484 42.6125 65.3484C42.315 65.3484 42.0408 65.231 41.8308 65.0198L35.3733 58.5255L36.9367 56.9532L43.3942 63.4476C43.8258 63.8817 43.8258 64.5857 43.3942 65.0198ZM47.7925 14.8895H8.2075C7.57167 14.8895 7.05833 15.4058 7.05833 16.0452V24.9918C7.05833 25.6313 7.57167 26.1476 8.2075 26.1476H47.7925C48.4283 26.1476 48.9417 25.6313 48.9417 24.9918V16.0452C48.9417 15.4058 48.4283 14.8895 47.7925 14.8895ZM46.6433 23.842H9.35667V17.2068H46.6375V23.842H46.6433ZM47.7925 30.7822H8.2075C7.57167 30.7822 7.05833 31.2985 7.05833 31.9379V40.8845C7.05833 41.524 7.57167 42.0403 8.2075 42.0403H47.7925C48.4283 42.0403 48.9417 41.524 48.9417 40.8845V31.9379C48.9417 31.2985 48.4283 30.7822 47.7925 30.7822ZM46.6433 39.7347H9.35667V33.0995H46.6375V39.7347H46.6433ZM17.1092 45.4429H8.21333C7.5775 45.4429 7.06417 45.9592 7.06417 46.5986V55.5452C7.06417 56.1847 7.5775 56.701 8.21333 56.701H17.1092C17.745 56.701 18.2583 56.1847 18.2583 55.5452V46.5986C18.2583 45.9592 17.745 45.4429 17.1092 45.4429ZM15.9542 54.3895H9.35667V47.7543H15.9542V54.3895ZM17.1092 59.6343H8.21333C7.5775 59.6343 7.06417 60.1505 7.06417 60.79V69.7366C7.06417 70.3761 7.5775 70.8923 8.21333 70.8923H17.1092C17.745 70.8923 18.2583 70.3761 18.2583 69.7366V60.79C18.2583 60.1505 17.745 59.6343 17.1092 59.6343ZM15.9542 68.5867H9.35667V61.9516H15.9542V68.5867ZM15.2483 49.2679C14.7642 48.8514 14.0408 48.9101 13.6267 49.3911L12.4425 50.7815L11.5967 50.2359C11.0658 49.8898 10.3483 50.0423 10.0042 50.5821C9.66 51.1218 9.81167 51.8375 10.3483 52.1836L12.0342 53.2807C12.2267 53.4039 12.4425 53.4684 12.6583 53.4684C12.985 53.4684 13.3058 53.3276 13.5333 53.0636L15.3767 50.9047C15.7908 50.4178 15.7325 49.6903 15.2542 49.2738L15.2483 49.2679Z" fill="#28292B"/>
</svg>
