<svg width="85" height="78" viewBox="0 0 85 78" fill="none" xmlns="http://www.w3.org/2000/svg">
<path d="M82.1084 4.05908H79.5401V2.90105C79.5401 1.30129 78.235 0 76.6365 0H49.1513C46.3615 0 43.9069 1.45052 42.506 3.6293C41.1051 1.45052 38.6505 0 35.8667 0H25.0366C24.3422 0 23.7854 0.555139 23.7854 1.2416C23.7854 1.92806 24.3422 2.4832 25.0306 2.4832H35.8607C38.8361 2.4832 41.2548 4.89477 41.2548 7.86148V46.5302C39.8419 45.205 37.9441 44.3932 35.8607 44.3932H7.96239V2.89508C7.96239 2.66825 8.14798 2.4832 8.37548 2.4832H19.5228C20.2113 2.4832 20.7681 1.92806 20.7681 1.2416C20.7681 0.555139 20.2113 0 19.5228 0H8.37548C6.77102 0 5.4719 1.30129 5.4719 2.89508V4.05311H2.90358C1.29913 4.05311 0 5.3544 0 6.94819V59.2626C0 60.8623 1.30511 62.1576 2.90358 62.1576H46.0322C46.7207 62.1576 47.2774 61.6025 47.2774 60.916C47.2774 60.2296 46.7207 59.6744 46.0322 59.6744H2.90358C2.67608 59.6744 2.49049 59.4894 2.49049 59.2626V6.95416C2.49049 6.72733 2.67608 6.54228 2.90358 6.54228H5.4719V53.0725C5.4719 54.6722 6.77701 55.9676 8.37548 55.9676H40.8417C41.4583 55.9676 42.033 55.7706 42.5 55.4423C42.973 55.7706 43.5417 55.9676 44.1583 55.9676H57.1616L58.5206 59.6864H51.534C50.8455 59.6864 50.2888 60.2415 50.2888 60.928C50.2888 61.6144 50.8455 62.1696 51.534 62.1696H59.4306L64.5133 76.0958C64.9444 77.2718 66.0579 78 67.2493 78C67.5785 78 67.9138 77.9463 68.2371 77.8269L75.487 75.1945C76.2174 74.9318 76.7981 74.4005 77.1274 73.6962C77.4567 72.9978 77.4926 72.2098 77.2232 71.4816L73.8227 62.1696H82.0964C83.7009 62.1696 85 60.8683 85 59.2745V6.95416C85 5.3544 83.6949 4.05908 82.0964 4.05908H82.1084ZM63.1184 64.999L71.1466 62.086L72.0207 64.4737L63.9925 67.3867L63.1184 64.999ZM77.0496 48.9418H69.0034L68.2491 46.8824H77.0496V48.9418ZM69.9074 51.425H77.0496V53.0725C77.0496 53.2993 76.864 53.4843 76.6365 53.4843H70.6617L69.9074 51.425ZM49.1453 2.4832H76.6305C76.858 2.4832 77.0436 2.66825 77.0436 2.89508V44.3932H67.3391L66.3333 41.6414C66.0998 40.9967 65.3814 40.6624 64.7348 40.9012C64.0883 41.134 63.753 41.8503 63.9925 42.495L70.2905 59.758L62.2623 62.671L53.5755 38.8776C53.809 38.9194 54.0485 38.9373 54.2879 38.9373C54.7848 38.9373 55.2877 38.8538 55.7726 38.6747L59.8017 37.2122C60.5142 36.9555 61.1308 36.5198 61.6097 35.9587L62.1066 37.3137C62.3401 37.9584 63.0585 38.2926 63.7051 38.0539C64.3517 37.8211 64.6869 37.1048 64.4475 36.4601L63.7171 34.4664C62.406 30.8789 60.143 27.7092 57.1735 25.3036L54.1862 22.8801C53.6174 22.4145 52.8571 22.2891 52.1686 22.5398C51.4742 22.7905 50.9773 23.3696 50.8396 24.0918L50.1092 27.8644C49.3848 31.6131 49.6961 35.4871 51.0012 39.0746L52.9409 44.3872H49.1393C47.0559 44.3872 45.1521 45.1991 43.7452 46.5242V7.86148C43.7452 4.89477 46.1639 2.4832 49.1393 2.4832H49.1453ZM55.605 27.2376C55.605 27.2376 55.635 27.2675 55.6529 27.2794C56.1738 27.7152 56.1438 28.2882 56.1019 28.521C56.0181 29.0165 55.6888 29.4104 55.2159 29.5835L54.3538 29.8939C53.8868 30.067 53.3779 29.9715 52.9948 29.6492C52.8212 29.5 52.4261 29.0821 52.5398 28.4136C52.5398 28.3897 52.5458 28.3718 52.5518 28.3479L53.1504 25.2558L55.599 27.2436L55.605 27.2376ZM53.8808 32.4607C54.3239 32.4607 54.7788 32.3831 55.2159 32.2219L56.078 31.9115C57.0778 31.5474 57.856 30.8192 58.2751 29.888C58.8858 30.6341 59.4365 31.4221 59.9275 32.2518C60.1909 32.7233 60.2388 33.2785 60.0592 33.7799C59.8736 34.2933 59.4725 34.6992 58.9576 34.8842L54.9285 36.3467C54.4137 36.5317 53.8449 36.484 53.372 36.2094C52.905 35.9408 52.5877 35.4811 52.4859 34.9558C52.3243 34.0067 52.2405 33.0457 52.2285 32.0846C52.7493 32.3353 53.3121 32.4667 53.8868 32.4667L53.8808 32.4607ZM40.8477 53.4843H8.37548C8.14798 53.4843 7.96239 53.2993 7.96239 53.0725V51.425H37.2376C37.9261 51.425 38.4829 50.8698 38.4829 50.1834C38.4829 49.4969 37.9261 48.9418 37.2376 48.9418H7.96239V46.8824H35.8667C38.8421 46.8824 41.2607 49.2939 41.2607 52.2607V53.0725C41.2607 53.2993 41.0752 53.4843 40.8477 53.4843ZM44.1643 53.4843C43.9368 53.4843 43.7512 53.2993 43.7512 53.0725V52.2607C43.7512 49.2939 46.1699 46.8824 49.1453 46.8824H53.8509L54.6052 48.9418H47.7684C47.0799 48.9418 46.5231 49.4969 46.5231 50.1834C46.5231 50.8698 47.0799 51.425 47.7684 51.425H55.5092L56.2636 53.4843H44.1643ZM74.8764 72.6456C74.8465 72.7053 74.7806 72.8068 74.6429 72.8605L67.3929 75.4929C67.1774 75.5705 66.938 75.4571 66.8601 75.2482L64.8426 69.7266L72.8708 66.8137L74.8884 72.3352C74.9422 72.4725 74.9003 72.5919 74.8764 72.6516V72.6456ZM82.5215 59.2685C82.5215 59.4954 82.3359 59.6804 82.1084 59.6804H72.9247L71.5657 55.9616H76.6305C78.235 55.9616 79.5341 54.6603 79.5341 53.0665V6.54228H82.1024C82.3299 6.54228 82.5155 6.72733 82.5155 6.95416V59.2685H82.5215ZM14.482 9.8373H16.5235C17.2119 9.8373 17.7687 9.28216 17.7687 8.5957C17.7687 7.90924 17.2119 7.3541 16.5235 7.3541H14.482C13.7935 7.3541 13.2367 7.90924 13.2367 8.5957C13.2367 9.28216 13.7935 9.8373 14.482 9.8373ZM24.6116 9.8373H34.7831C35.4715 9.8373 36.0283 9.28216 36.0283 8.5957C36.0283 7.90924 35.4715 7.3541 34.7831 7.3541H24.6116C23.9231 7.3541 23.3663 7.90924 23.3663 8.5957C23.3663 9.28216 23.9231 9.8373 24.6116 9.8373ZM34.7831 12.3683H14.482C13.7935 12.3683 13.2367 12.9234 13.2367 13.6099C13.2367 14.2963 13.7935 14.8515 14.482 14.8515H34.7831C35.4715 14.8515 36.0283 14.2963 36.0283 13.6099C36.0283 12.9234 35.4715 12.3683 34.7831 12.3683ZM34.7831 17.3824H14.482C13.7935 17.3824 13.2367 17.9376 13.2367 18.624C13.2367 19.3105 13.7935 19.8656 14.482 19.8656H34.7831C35.4715 19.8656 36.0283 19.3105 36.0283 18.624C36.0283 17.9376 35.4715 17.3824 34.7831 17.3824ZM34.7831 22.4025H14.482C13.7935 22.4025 13.2367 22.9577 13.2367 23.6441C13.2367 24.3306 13.7935 24.8857 14.482 24.8857H34.7831C35.4715 24.8857 36.0283 24.3306 36.0283 23.6441C36.0283 22.9577 35.4715 22.4025 34.7831 22.4025ZM34.7831 27.4167H14.482C13.7935 27.4167 13.2367 27.9718 13.2367 28.6583C13.2367 29.3448 13.7935 29.8999 14.482 29.8999H34.7831C35.4715 29.8999 36.0283 29.3448 36.0283 28.6583C36.0283 27.9718 35.4715 27.4167 34.7831 27.4167ZM34.7831 32.4309H14.482C13.7935 32.4309 13.2367 32.986 13.2367 33.6725C13.2367 34.3589 13.7935 34.9141 14.482 34.9141H34.7831C35.4715 34.9141 36.0283 34.3589 36.0283 33.6725C36.0283 32.986 35.4715 32.4309 34.7831 32.4309ZM34.7831 37.445H14.482C13.7935 37.445 13.2367 38.0002 13.2367 38.6866C13.2367 39.3731 13.7935 39.9282 14.482 39.9282H34.7831C35.4715 39.9282 36.0283 39.3731 36.0283 38.6866C36.0283 38.0002 35.4715 37.445 34.7831 37.445ZM50.2289 9.8373H60.4004C61.0889 9.8373 61.6457 9.28216 61.6457 8.5957C61.6457 7.90924 61.0889 7.3541 60.4004 7.3541H50.2289C49.5404 7.3541 48.9837 7.90924 48.9837 8.5957C48.9837 9.28216 49.5404 9.8373 50.2289 9.8373ZM50.2289 14.8515H70.53C71.2185 14.8515 71.7753 14.2963 71.7753 13.6099C71.7753 12.9234 71.2185 12.3683 70.53 12.3683H50.2289C49.5404 12.3683 48.9837 12.9234 48.9837 13.6099C48.9837 14.2963 49.5404 14.8515 50.2289 14.8515ZM50.2289 19.8656H70.53C71.2185 19.8656 71.7753 19.3105 71.7753 18.624C71.7753 17.9376 71.2185 17.3824 70.53 17.3824H50.2289C49.5404 17.3824 48.9837 17.9376 48.9837 18.624C48.9837 19.3105 49.5404 19.8656 50.2289 19.8656ZM70.53 22.4025H60.3765C59.688 22.4025 59.1312 22.9577 59.1312 23.6441C59.1312 24.3306 59.688 24.8857 60.3765 24.8857H70.53C71.2185 24.8857 71.7753 24.3306 71.7753 23.6441C71.7753 22.9577 71.2185 22.4025 70.53 22.4025Z" fill="#28292B"/>
</svg>
