<svg width="100" height="80" viewBox="0 0 100 80" fill="none" xmlns="http://www.w3.org/2000/svg">
<path d="M97.162 68.1603H93.8451V27.1801C93.8451 24.7226 91.6197 22.7271 88.8873 22.7271H74.0211V4.05391C74.0211 1.82041 72.1901 0 69.9437 0H30.2465C28 0 26.169 1.82041 26.169 4.05391V22.7201H10.9155C8.1831 22.7201 5.95775 24.7226 5.95775 27.1731V68.1533H2.83803C1.27465 68.1533 0 69.4206 0 70.975V74.0767C0 77.3394 2.66901 80 5.95775 80H94.0423C97.3239 80 100 77.3464 100 74.0767V70.975C100 69.4206 98.7254 68.1533 97.162 68.1533V68.1603ZM71.0915 4.05391V7.23263H65.2535L67.2113 2.91266H69.9507C70.5845 2.91266 71.0986 3.42377 71.0986 4.05391H71.0915ZM58.0282 7.23263L59.9859 2.91266H64L62.0423 7.23263H58.0282ZM50.8028 7.23263L52.7606 2.91266H56.7747L54.8169 7.23263H50.8028ZM43.5775 7.23263L45.5352 2.91266H49.5493L47.5916 7.23263H43.5775ZM36.3521 7.23263L38.3099 2.91266H42.3239L40.3662 7.23263H36.3521ZM30.2465 2.91266H35.0916L33.1338 7.23263H29.0986V4.05391C29.0986 3.42377 29.6127 2.91266 30.2465 2.91266ZM8.88732 27.1731C8.88732 26.3399 9.8169 25.6328 10.9155 25.6328H26.1761V27.5722H13.0775C12.2676 27.5722 11.6127 28.2233 11.6127 29.0285V64.7576C11.6127 65.5627 12.2676 66.2139 13.0775 66.2139H21.1972C22.007 66.2139 22.662 65.5627 22.662 64.7576C22.662 63.9524 22.007 63.3012 21.1972 63.3012H14.5423V30.4849H26.1761V33.4255C26.1761 35.659 28.007 37.4794 30.2535 37.4794H59.0916C59.9014 37.4794 60.5563 36.8283 60.5563 36.0231C60.5563 35.2179 59.9014 34.5668 59.0916 34.5668H30.2535C29.6197 34.5668 29.1056 34.0557 29.1056 33.4255V10.1453H71.0986V33.4255C71.0986 34.0557 70.5845 34.5668 69.9507 34.5668H64.9437C64.1338 34.5668 63.4789 35.2179 63.4789 36.0231C63.4789 36.8283 64.1338 37.4794 64.9437 37.4794H69.9507C72.1972 37.4794 74.0282 35.659 74.0282 33.4255V30.4849H85.2746V63.3012H27.0493C26.2394 63.3012 25.5845 63.9524 25.5845 64.7576C25.5845 65.5627 26.2394 66.2139 27.0493 66.2139H86.7324C87.5423 66.2139 88.1972 65.5627 88.1972 64.7576V29.0285C88.1972 28.2233 87.5423 27.5722 86.7324 27.5722H74.0211V25.6328H88.8873C89.9859 25.6328 90.9155 26.3399 90.9155 27.1731V68.1533H8.88732V27.1731ZM37.5 71.073H63.0845V72.1232C63.0845 72.3963 62.8592 72.6273 62.5775 72.6273H38C37.7254 72.6273 37.493 72.4033 37.493 72.1232V71.073H37.5ZM97.0704 74.0837C97.0704 75.743 95.7113 77.0943 94.0423 77.0943H5.95775C4.28873 77.0943 2.92958 75.743 2.92958 74.0837V71.073H34.5704V72.1232C34.5704 74.0067 36.1127 75.54 38.007 75.54H62.5845C64.4789 75.54 66.0211 74.0067 66.0211 72.1232V71.073H97.0775V74.0837H97.0704ZM56.2817 19.6534L44.8099 13.9471C43.9718 13.527 42.993 13.5761 42.1972 14.0662C41.4014 14.5563 40.9225 15.4035 40.9225 16.3347V27.7472C40.9225 28.6785 41.4014 29.5256 42.1972 30.0158C42.6338 30.2818 43.1197 30.4148 43.6056 30.4148C44.0141 30.4148 44.4296 30.3238 44.8099 30.1278L56.2817 24.4215C57.1972 23.9664 57.7676 23.0492 57.7676 22.034C57.7676 21.0187 57.1972 20.1015 56.2817 19.6464V19.6534ZM43.8451 27.3552V16.7268L54.5352 22.041L43.8451 27.3552ZM20.5493 48.934H29.2606C30.5704 48.934 31.6408 47.8698 31.6408 46.5675V42.7586C31.6408 41.4563 30.5704 40.3921 29.2606 40.3921H20.5493C19.2394 40.3921 18.169 41.4563 18.169 42.7586V46.5675C18.169 47.8698 19.2394 48.934 20.5493 48.934ZM21.0916 43.3047H28.7113V46.0214H21.0916V43.3047ZM31.6408 57.0488V53.24C31.6408 51.9377 30.5704 50.8734 29.2606 50.8734H20.5493C19.2394 50.8734 18.169 51.9377 18.169 53.24V57.0488C18.169 58.3511 19.2394 59.4154 20.5493 59.4154H29.2606C30.5704 59.4154 31.6408 58.3511 31.6408 57.0488ZM28.7113 56.5097H21.0916V53.7931H28.7113V56.5097ZM36.4225 43.4938H40.5211C41.331 43.4938 41.9859 42.8426 41.9859 42.0375C41.9859 41.2323 41.331 40.5811 40.5211 40.5811H36.4225C35.6127 40.5811 34.9577 41.2323 34.9577 42.0375C34.9577 42.8426 35.6127 43.4938 36.4225 43.4938ZM44.8239 43.4938H76.0775C76.8873 43.4938 77.5423 42.8426 77.5423 42.0375C77.5423 41.2323 76.8873 40.5811 76.0775 40.5811H44.8239C44.0141 40.5811 43.3592 41.2323 43.3592 42.0375C43.3592 42.8426 44.0141 43.4938 44.8239 43.4938ZM76.0775 46.0214H68.2676C67.4577 46.0214 66.8028 46.6725 66.8028 47.4777C66.8028 48.2829 67.4577 48.934 68.2676 48.934H76.0775C76.8873 48.934 77.5423 48.2829 77.5423 47.4777C77.5423 46.6725 76.8873 46.0214 76.0775 46.0214ZM36.4225 48.934H63.9648C64.7747 48.934 65.4296 48.2829 65.4296 47.4777C65.4296 46.6725 64.7747 46.0214 63.9648 46.0214H36.4225C35.6127 46.0214 34.9577 46.6725 34.9577 47.4777C34.9577 48.2829 35.6127 48.934 36.4225 48.934ZM36.4225 53.9821H40.5211C41.331 53.9821 41.9859 53.331 41.9859 52.5258C41.9859 51.7206 41.331 51.0695 40.5211 51.0695H36.4225C35.6127 51.0695 34.9577 51.7206 34.9577 52.5258C34.9577 53.331 35.6127 53.9821 36.4225 53.9821ZM76.0775 51.0695H44.8239C44.0141 51.0695 43.3592 51.7206 43.3592 52.5258C43.3592 53.331 44.0141 53.9821 44.8239 53.9821H76.0775C76.8873 53.9821 77.5423 53.331 77.5423 52.5258C77.5423 51.7206 76.8873 51.0695 76.0775 51.0695ZM76.0775 56.5097H68.2676C67.4577 56.5097 66.8028 57.1609 66.8028 57.966C66.8028 58.7712 67.4577 59.4224 68.2676 59.4224H76.0775C76.8873 59.4224 77.5423 58.7712 77.5423 57.966C77.5423 57.1609 76.8873 56.5097 76.0775 56.5097ZM36.4225 59.4224H63.9648C64.7747 59.4224 65.4296 58.7712 65.4296 57.966C65.4296 57.1609 64.7747 56.5097 63.9648 56.5097H36.4225C35.6127 56.5097 34.9577 57.1609 34.9577 57.966C34.9577 58.7712 35.6127 59.4224 36.4225 59.4224Z" fill="#28292B"/>
</svg>
