<svg width="400" height="120" viewBox="0 0 400 120" fill="none" xmlns="http://www.w3.org/2000/svg">
<rect width="400" height="120" fill="white"/>
<path d="M209.683 100.42C206.173 100.42 203.803 99.1 202.243 97.33L204.313 94.54C205.633 95.83 207.253 96.82 209.263 96.82C211.513 96.82 213.043 95.71 213.043 93.73C213.043 91.54 211.753 90.19 206.923 90.19V87.01C211.003 87.01 212.323 85.6 212.323 83.62C212.323 81.88 211.243 80.86 209.353 80.83C207.763 80.86 206.473 81.61 205.153 82.81L202.903 80.11C204.823 78.43 206.953 77.38 209.563 77.38C213.853 77.38 216.763 79.48 216.763 83.29C216.763 85.69 215.413 87.43 213.043 88.36V88.51C215.563 89.2 217.483 91.06 217.483 93.97C217.483 98.05 213.913 100.42 209.683 100.42ZM230.919 97.09C232.569 97.09 233.919 95.71 233.919 93.01C233.919 90.37 232.689 89.14 230.769 89.14C229.569 89.14 228.249 89.77 227.139 91.48C227.559 95.53 229.059 97.09 230.919 97.09ZM237.639 79.9L235.299 82.54C234.519 81.64 233.169 80.92 231.879 80.92C229.329 80.92 227.229 82.84 227.049 88.39C228.249 86.92 230.169 86.02 231.609 86.02C235.329 86.02 237.969 88.24 237.969 93.01C237.969 97.57 234.789 100.42 231.009 100.42C226.779 100.42 223.029 97.03 223.029 89.2C223.029 80.92 227.139 77.38 231.609 77.38C234.309 77.38 236.289 78.52 237.639 79.9ZM246.455 100.42C244.895 100.42 243.725 99.16 243.725 97.54C243.725 95.92 244.895 94.66 246.455 94.66C248.045 94.66 249.215 95.92 249.215 97.54C249.215 99.16 248.045 100.42 246.455 100.42ZM255.041 100V97.45C261.071 92.05 264.641 87.88 264.641 84.46C264.641 82.21 263.411 80.86 261.311 80.86C259.691 80.86 258.341 81.91 257.231 83.14L254.831 80.74C256.871 78.58 258.851 77.38 261.881 77.38C266.081 77.38 268.871 80.08 268.871 84.22C268.871 88.24 265.541 92.56 261.491 96.52C262.601 96.4 264.071 96.28 265.091 96.28H269.921V100H255.041ZM290.737 88.084H281.377C281.341 89.038 281.305 90.028 281.215 91H289.297C289.297 91 289.279 91.684 289.243 91.954C288.973 97.48 288.667 99.658 287.965 100.45C287.425 101.08 286.849 101.26 286.039 101.35C285.337 101.44 284.095 101.422 282.907 101.368C282.853 100.756 282.547 99.856 282.151 99.262C283.393 99.37 284.617 99.37 285.157 99.37C285.535 99.37 285.769 99.334 286.003 99.136C286.471 98.686 286.759 96.922 286.957 93.07H280.963C280.405 96.4 279.109 99.514 275.761 101.53C275.437 100.954 274.771 100.216 274.213 99.802C278.839 97.21 278.983 92.422 279.109 88.084H274.915V85.978H290.737V88.084ZM302.545 92.548H307.045V88.012H302.545V92.548ZM296.173 88.012V92.548H300.421V88.012H296.173ZM309.205 85.888V99.046C309.205 100.216 308.953 100.81 308.197 101.152C307.477 101.512 306.397 101.548 304.795 101.548C304.687 100.954 304.327 99.964 304.021 99.406C305.047 99.478 306.217 99.46 306.577 99.46C306.919 99.442 307.045 99.334 307.045 99.028V94.672H296.173V101.548H294.013V85.888H309.205Z" fill="#28292B"/>
<path d="M91.8382 85.632H96.2302V84.606H98.3722V85.632H102.854V84.21H91.8382V85.632ZM105.32 93.156H99.4162C100.694 94.596 102.71 95.424 105.554 95.73C105.122 96.18 104.564 97.026 104.294 97.602C100.874 97.062 98.7322 95.784 97.3102 93.552C96.2482 95.154 94.2502 96.576 90.5782 97.566C90.3262 97.098 89.7142 96.288 89.2462 95.838C92.2702 95.154 93.9982 94.218 94.9882 93.156H89.5702V91.302H96.0322C96.1222 90.924 96.1762 90.546 96.2122 90.168H91.6042V88.44H96.2302V87.36H91.3162V86.172H89.7142V82.338H96.2842V80.772H98.4802V82.338H105.068V86.172H103.628V87.36H98.3722V88.44H103.268V90.168H98.3542C98.3362 90.546 98.3002 90.924 98.2102 91.302H105.32V93.156ZM112.286 92.454V93.246H120.098V92.454H112.286ZM112.286 90.474V91.248H120.098V90.474H112.286ZM112.286 88.476V89.25H120.098V88.476H112.286ZM122.276 94.542H119.162C120.998 95.19 123.068 96.054 124.292 96.648L121.808 97.602C120.782 97.008 118.946 96.162 117.128 95.478L118.748 94.542H113.492L115.13 95.262C113.636 96.234 111.332 97.116 109.514 97.62C109.136 97.206 108.38 96.432 107.93 96.054C109.676 95.73 111.638 95.154 112.88 94.542H110.216V87.198H116.192C115.922 86.748 115.328 86.136 114.95 85.884C115.4 85.596 115.742 85.29 115.994 84.984H114.374V86.856H112.466V84.984H110.882C110.612 86.01 110.108 87.108 109.154 87.972C108.866 87.576 108.182 86.892 107.75 86.64C109.064 85.452 109.28 83.976 109.28 82.788V81.15L110.648 81.492C112.052 81.33 113.492 81.06 114.392 80.772L115.706 82.032C114.41 82.428 112.7 82.68 111.134 82.806V82.896C111.134 83.058 111.134 83.256 111.116 83.436H116.066V84.894C116.588 84.21 116.696 83.49 116.696 82.806V81.168L118.136 81.51C119.63 81.33 121.196 81.06 122.168 80.772L123.464 82.05C122.078 82.446 120.224 82.68 118.55 82.824V82.914C118.55 83.076 118.55 83.256 118.532 83.436H124.166V84.984H121.898V86.874H119.99V84.984H118.172C117.866 85.776 117.326 86.55 116.408 87.198H122.276V94.542ZM131.024 91.662V92.706H138.872V91.662H131.024ZM135.29 83.58H131.906C131.546 84.03 131.15 84.462 130.718 84.876H134.282C134.642 84.48 134.984 84.012 135.29 83.58ZM138.872 87.558V86.532H131.024V87.558H138.872ZM138.872 90.114V89.106H131.024V90.114H138.872ZM141.104 94.38H138.098C139.844 95.046 141.824 95.892 142.994 96.486L140.582 97.566C139.592 96.972 137.792 96.09 136.064 95.406L137.648 94.38H132.032L133.868 95.208C132.392 96.18 130.106 97.098 128.306 97.638C127.928 97.206 127.118 96.378 126.632 95.982C128.396 95.622 130.358 95.028 131.6 94.38H128.9V86.46C128.648 86.658 128.378 86.838 128.09 87.036C127.73 86.532 126.992 85.812 126.506 85.506C128.792 84.174 130.394 82.356 131.276 80.772L133.598 81.204C133.454 81.456 133.292 81.69 133.13 81.942H136.478L136.82 81.852L138.296 82.806C137.918 83.454 137.396 84.192 136.838 84.876H141.104V94.38ZM158.636 86.514V83.886H154.118V86.514H158.636ZM158.636 91.23V88.512H154.118V91.23H158.636ZM160.778 81.906V93.21H152.066V81.906H160.778ZM151.382 88.35L151.634 90.312C150.968 90.492 150.302 90.69 149.618 90.87V95.154C149.618 96.198 149.42 96.72 148.826 97.026C148.232 97.368 147.35 97.422 146.09 97.422C146.036 96.864 145.748 96.018 145.496 95.478C146.198 95.496 146.954 95.496 147.188 95.496C147.44 95.496 147.53 95.406 147.53 95.154V91.41L145.622 91.914L145.064 89.862C145.766 89.718 146.63 89.52 147.53 89.304V86.154H145.298V84.174H147.53V80.772H149.618V84.174H151.508V86.154H149.618V88.8L151.382 88.35ZM150.824 94.974H161.876V96.972H150.824V94.974ZM178.004 87.198V86.1H174.44V87.198H178.004ZM178.004 89.772V88.674H174.44V89.772H178.004ZM178.004 92.4V91.284H174.44V92.4H178.004ZM172.514 84.498H174.782C174.854 84.102 174.926 83.67 174.998 83.274H171.974V81.456H180.38V83.274H177.266C177.122 83.706 176.978 84.12 176.834 84.498H180.02V93.984H172.514V84.498ZM165.836 83.904V85.146H164.108V82.248H166.988V80.79H168.986V82.248H171.92V85.146H170.138V83.904H165.836ZM169.076 94.866V93.21H166.898V94.866H169.076ZM166.934 91.554H169.976C169.526 91.194 168.986 90.798 168.446 90.384C167.978 90.816 167.474 91.212 166.934 91.554ZM169.094 86.766H167.348C167.222 86.928 167.096 87.072 166.97 87.234L168.212 88.044C168.554 87.648 168.842 87.216 169.094 86.766ZM170.894 92.31V96.036C172.082 95.55 173.342 94.722 173.99 94.056L175.718 95.136C174.782 96.054 173.198 97.008 171.884 97.53C171.65 97.242 171.254 96.846 170.894 96.504H166.898V97.224H165.098V92.562L164.72 92.724C164.486 92.256 164.018 91.536 163.64 91.194C164.828 90.78 165.962 90.132 166.952 89.304L165.764 88.476C165.512 88.692 165.26 88.908 164.99 89.088C164.702 88.746 164.036 88.098 163.64 87.846C165.044 86.964 166.286 85.596 166.934 84.084L168.68 84.516C168.554 84.804 168.428 85.074 168.266 85.344H169.94L170.264 85.254L171.47 85.812C171.056 87.036 170.444 88.116 169.706 89.052C170.66 89.7 171.542 90.348 172.136 90.852L170.93 92.346L170.894 92.31ZM176.51 95.118L178.058 94.146C179.012 94.812 180.326 95.802 180.974 96.486L179.318 97.584C178.742 96.9 177.482 95.838 176.51 95.118ZM182.684 87.882V85.992H191.918V87.882H182.684ZM182.684 92.544V90.654H191.918V92.544H182.684Z" fill="#28292B"/>
<rect x="20.0002" y="18" width="168" height="40" fill="#00CF35"/>
<path d="M29.611 43V41.765H31.704V35.109H29.988V34.16C30.885 33.991 31.522 33.77 32.068 33.432H33.199V41.765H35.071V43H29.611ZM46.71 33.809C46.71 34.251 47.074 34.615 47.516 34.615C47.958 34.615 48.335 34.251 48.335 33.809C48.335 33.367 47.958 32.99 47.516 32.99C47.074 32.99 46.71 33.367 46.71 33.809ZM46.021 33.809C46.021 32.99 46.684 32.314 47.516 32.314C48.348 32.314 49.024 32.99 49.024 33.809C49.024 34.641 48.348 35.304 47.516 35.304C46.684 35.304 46.021 34.641 46.021 33.809ZM39.118 39.035C39.69 37.644 40.21 35.72 40.366 34.16L41.848 34.459C41.757 34.784 41.64 35.278 41.575 35.564C41.406 36.422 40.938 38.281 40.431 39.568C39.963 40.777 39.222 42.181 38.52 43.195L37.103 42.597C37.922 41.518 38.663 40.14 39.118 39.035ZM45.527 38.632C45.007 37.28 44.201 35.421 43.642 34.446L44.981 34.004C45.501 34.979 46.372 36.864 46.892 38.177C47.386 39.425 48.075 41.453 48.426 42.675L46.944 43.156C46.593 41.739 46.047 40.023 45.527 38.632ZM56.356 35.408C56.59 35.954 57.227 37.657 57.396 38.229L56.174 38.671C56.018 38.06 55.433 36.435 55.134 35.811L56.356 35.408ZM59.671 35.785L61.101 36.24C60.984 36.565 60.906 36.799 60.854 37.02C60.503 38.398 59.944 39.776 59.034 40.933C57.838 42.467 56.226 43.507 54.757 44.079L53.678 42.974C55.147 42.558 56.863 41.57 57.942 40.231C58.839 39.113 59.489 37.423 59.671 35.785ZM53.327 36.084C53.626 36.682 54.276 38.333 54.523 39.035L53.288 39.49C53.067 38.801 52.391 37.033 52.105 36.526L53.327 36.084ZM73.893 34.238L74.959 34.888C74.829 35.096 74.686 35.421 74.595 35.681C74.244 36.929 73.477 38.671 72.307 40.101C71.111 41.57 69.538 42.766 67.107 43.702L65.898 42.623C68.407 41.869 69.954 40.712 71.111 39.373C72.073 38.268 72.853 36.63 73.087 35.538H69.031C68.199 36.656 67.094 37.8 65.729 38.71L64.585 37.865C66.847 36.513 68.056 34.706 68.667 33.562C68.823 33.302 69.044 32.769 69.148 32.392L70.656 32.886C70.396 33.276 70.123 33.783 69.98 34.043C69.928 34.147 69.863 34.264 69.798 34.368H72.918C73.282 34.368 73.646 34.329 73.893 34.238ZM86.282 34.498L85.645 35.421C85.242 34.914 84.358 34.212 83.617 33.744L84.228 32.925C84.956 33.367 85.853 34.017 86.282 34.498ZM85.736 37.592L85.125 38.554C84.683 38.086 83.76 37.41 82.993 36.994L83.565 36.123C84.319 36.526 85.268 37.137 85.736 37.592ZM81.836 32.847L82.889 33.081C82.551 34.095 82.161 35.304 81.823 36.045L81.056 35.811C81.329 35.018 81.68 33.731 81.836 32.847ZM79.236 35.798L78.313 36.045C78.261 35.265 77.975 34.043 77.663 33.12L78.521 32.899C78.872 33.809 79.145 35.018 79.236 35.798ZM80.757 37.54V37.683C81.147 38.099 82.395 39.685 82.668 40.075L81.901 41.024C81.68 40.556 81.186 39.737 80.757 39.048V44.014H79.626V39.035C79.184 40.335 78.586 41.661 77.975 42.48C77.871 42.129 77.585 41.596 77.39 41.271C78.092 40.413 78.833 38.866 79.262 37.54H77.611V36.409H79.626V32.158H80.757V36.409H82.785V37.54H80.757ZM89.532 40.153L87.92 40.439V44.027H86.789V40.647L82.941 41.349L82.746 40.231L86.789 39.503V32.106H87.92V39.295L89.363 39.048L89.532 40.153ZM94.264 35.98H99.776C98.645 35.122 97.631 34.16 96.955 33.25C96.331 34.134 95.382 35.096 94.264 35.98ZM97.579 39.633V42.584H102.493V43.637H91.534V42.584H96.305V39.633H92.158V38.593H96.305V37.046H93.757V36.37C93.107 36.838 92.431 37.267 91.729 37.644C91.586 37.371 91.235 36.916 90.975 36.669C93.185 35.577 95.304 33.666 96.279 32.067H97.514C98.892 33.965 101.063 35.642 103.078 36.513C102.792 36.825 102.506 37.241 102.298 37.592C101.609 37.241 100.907 36.799 100.218 36.305V37.046H97.579V38.593H101.817V39.633H97.579ZM93.107 40.218L94.095 39.828C94.602 40.517 95.122 41.44 95.304 42.064L94.251 42.532C94.095 41.908 93.601 40.933 93.107 40.218ZM99.334 42.532L98.437 42.129C98.879 41.518 99.438 40.53 99.75 39.815L100.907 40.244C100.4 41.063 99.815 41.947 99.334 42.532Z" fill="white"/>
<rect x="112" y="22" width="72" height="32" fill="white"/>
<path d="M128.154 44C128.362 39.888 129.05 37.264 131.306 34.128H125.978V32.16H133.85V33.584C131.098 36.944 130.73 39.36 130.538 44H128.154ZM139.96 44.224C137.544 44.224 135.944 42.112 135.944 38.032C135.944 33.936 137.544 31.936 139.96 31.936C142.36 31.936 143.96 33.952 143.96 38.032C143.96 42.112 142.36 44.224 139.96 44.224ZM139.96 42.384C140.968 42.384 141.736 41.36 141.736 38.032C141.736 34.72 140.968 33.76 139.96 33.76C138.936 33.76 138.168 34.72 138.168 38.032C138.168 41.36 138.936 42.384 139.96 42.384ZM157.457 35.212H150.697C150.671 36.005 150.645 36.811 150.567 37.617H156.339C156.339 37.617 156.339 38.007 156.326 38.176C156.105 42.258 155.884 43.818 155.377 44.377C155.052 44.754 154.701 44.858 154.155 44.91C153.661 44.962 152.777 44.949 151.893 44.897C151.867 44.546 151.698 44.052 151.477 43.714C152.4 43.792 153.323 43.792 153.674 43.792C153.973 43.805 154.129 43.779 154.285 43.636C154.662 43.311 154.857 41.946 155.026 38.787H150.411C150.034 41.283 149.098 43.61 146.602 45.04C146.433 44.715 146.043 44.312 145.731 44.065C149.202 42.193 149.345 38.449 149.449 35.212H146.16V34.029H157.457V35.212ZM165.881 38.696H169.508V35.147H165.881V38.696ZM161.201 35.147V38.696H164.685V35.147H161.201ZM170.73 33.951V43.519C170.73 44.221 170.574 44.585 170.093 44.793C169.625 44.988 168.871 45.014 167.714 45.014C167.662 44.676 167.467 44.13 167.272 43.805C168.104 43.844 168.936 43.831 169.183 43.818C169.43 43.818 169.508 43.74 169.508 43.506V39.892H161.201V45.027H159.992V33.951H170.73Z" fill="#28292B"/>
<rect x="212.002" y="18" width="168" height="40" fill="#F74A3F"/>
<path d="M232.939 39.191V41.141C233.602 40.998 234.317 40.855 235.058 40.699V39.191H232.939ZM235.058 33.783H232.939V35.421H235.058V33.783ZM235.058 38.125V36.474H232.939V38.125H235.058ZM236.813 40.309L236.93 41.401C234.889 41.895 232.718 42.415 231.158 42.779L230.937 41.531C231.223 41.479 231.535 41.427 231.86 41.362V32.691H236.176V40.452L236.813 40.309ZM239.686 34.953H242.546C242.546 34.953 242.533 35.369 242.533 35.525C242.403 40.907 242.286 42.779 241.87 43.338C241.597 43.728 241.311 43.845 240.882 43.91C240.479 43.962 239.79 43.949 239.114 43.923C239.088 43.585 238.958 43.091 238.763 42.766C239.439 42.818 240.076 42.818 240.349 42.818C240.57 42.831 240.7 42.792 240.83 42.623C241.116 42.246 241.259 40.556 241.363 36.097H239.634C239.426 39.49 238.737 42.337 236.15 44.053C235.968 43.754 235.591 43.351 235.305 43.13C237.658 41.635 238.282 39.139 238.464 36.097H236.566V34.953H238.503C238.529 34.043 238.529 33.081 238.529 32.106H239.712C239.712 33.081 239.712 34.043 239.686 34.953ZM254.389 36.227L255.611 36.526C255.065 38.203 254.298 39.672 253.349 40.92C253.791 42.025 254.298 42.701 254.844 42.701C255.182 42.701 255.338 42.038 255.416 40.361C255.702 40.647 256.131 40.92 256.456 41.037C256.261 43.325 255.819 43.936 254.753 43.936C253.804 43.936 253.05 43.208 252.465 41.986C251.724 42.766 250.905 43.429 250.008 43.975C249.826 43.715 249.397 43.208 249.124 42.987C250.203 42.389 251.165 41.635 251.958 40.712C251.49 39.243 251.191 37.384 251.035 35.356H246.875V36.929H250.138V37.397C250.073 40.218 250.008 41.336 249.735 41.7C249.501 41.973 249.254 42.077 248.903 42.116C248.578 42.168 247.993 42.168 247.369 42.142C247.343 41.791 247.226 41.323 247.044 41.011C247.577 41.063 248.084 41.076 248.292 41.076C248.474 41.076 248.604 41.037 248.695 40.92C248.838 40.738 248.916 39.997 248.955 38.034H246.875C246.862 39.88 246.641 42.48 245.497 44.157C245.289 43.91 244.756 43.481 244.483 43.325C245.523 41.765 245.614 39.529 245.614 37.852V34.173H250.957C250.918 33.497 250.892 32.795 250.892 32.106H252.166C252.153 32.808 252.166 33.497 252.205 34.173H254.714C254.207 33.744 253.362 33.185 252.673 32.808L253.401 32.067C254.168 32.47 255.143 33.068 255.65 33.51L255.026 34.173H256.352V35.356H252.27C252.4 36.903 252.608 38.307 252.907 39.464C253.531 38.502 254.012 37.423 254.389 36.227ZM268.338 36.747V35.694H265.322V36.747H268.338ZM268.338 38.671V37.605H265.322V38.671H268.338ZM268.338 40.608V39.529H265.322V40.608H268.338ZM264.23 34.771H265.907C265.985 34.433 266.063 34.043 266.128 33.692H263.788V32.652H269.794V33.692H267.415C267.298 34.056 267.168 34.433 267.051 34.771H269.482V41.518H264.23V34.771ZM259.238 34.186V35.174H258.25V33.211H260.395V32.119H261.526V33.211H263.684V35.174H262.657V34.186H259.238ZM261.89 42.272V40.699H259.992V42.272H261.89ZM259.94 39.763H262.618C262.241 39.438 261.773 39.074 261.279 38.697C260.876 39.1 260.421 39.451 259.94 39.763ZM261.903 36.201H260.369C260.265 36.344 260.161 36.474 260.057 36.604C260.408 36.838 260.785 37.085 261.162 37.345C261.448 36.994 261.708 36.604 261.903 36.201ZM262.943 40.049V43.156C263.84 42.818 264.828 42.207 265.309 41.687L266.31 42.298C265.634 42.961 264.542 43.637 263.606 44.001C263.411 43.78 263.06 43.429 262.813 43.208H259.992V43.793H258.965V40.322C258.809 40.387 258.653 40.465 258.497 40.53C258.367 40.27 258.081 39.88 257.873 39.659C258.796 39.321 259.706 38.775 260.46 38.086C260.096 37.813 259.732 37.553 259.394 37.319C259.16 37.54 258.926 37.748 258.679 37.93C258.523 37.735 258.12 37.384 257.899 37.215C258.9 36.565 259.784 35.538 260.265 34.407L261.266 34.667C261.162 34.901 261.045 35.135 260.915 35.356H262.384L262.566 35.304L263.255 35.616C262.956 36.487 262.514 37.267 261.981 37.93C262.709 38.463 263.385 38.983 263.827 39.386L263.125 40.218L262.943 40.049ZM267.155 42.311L268.039 41.752C268.767 42.22 269.716 42.922 270.197 43.403L269.261 44.04C268.806 43.572 267.883 42.818 267.155 42.311Z" fill="white"/>
<rect x="288.003" y="22" width="88" height="32" fill="white"/>
<path d="M305.612 44.224C303.74 44.224 302.476 43.52 301.644 42.576L302.748 41.088C303.452 41.776 304.316 42.304 305.388 42.304C306.588 42.304 307.404 41.712 307.404 40.656C307.404 39.488 306.716 38.768 304.14 38.768V37.072C306.316 37.072 307.02 36.32 307.02 35.264C307.02 34.336 306.444 33.792 305.436 33.776C304.588 33.792 303.9 34.192 303.196 34.832L301.996 33.392C303.02 32.496 304.156 31.936 305.548 31.936C307.836 31.936 309.388 33.056 309.388 35.088C309.388 36.368 308.668 37.296 307.404 37.792V37.872C308.748 38.24 309.772 39.232 309.772 40.784C309.772 42.96 307.868 44.224 305.612 44.224ZM315.673 44.224C313.801 44.224 312.537 43.52 311.705 42.576L312.809 41.088C313.513 41.776 314.377 42.304 315.449 42.304C316.649 42.304 317.465 41.712 317.465 40.656C317.465 39.488 316.777 38.768 314.201 38.768V37.072C316.377 37.072 317.081 36.32 317.081 35.264C317.081 34.336 316.505 33.792 315.497 33.776C314.649 33.792 313.961 34.192 313.257 34.832L312.057 33.392C313.081 32.496 314.217 31.936 315.609 31.936C317.897 31.936 319.449 33.056 319.449 35.088C319.449 36.368 318.729 37.296 317.465 37.792V37.872C318.809 38.24 319.833 39.232 319.833 40.784C319.833 42.96 317.929 44.224 315.673 44.224ZM323.943 44.224C323.111 44.224 322.487 43.552 322.487 42.688C322.487 41.824 323.111 41.152 323.943 41.152C324.791 41.152 325.415 41.824 325.415 42.688C325.415 43.552 324.791 44.224 323.943 44.224ZM331.898 44.224C329.642 44.224 327.946 42.912 327.946 41.056C327.946 39.536 328.874 38.56 329.978 37.968V37.888C329.066 37.232 328.41 36.336 328.41 35.072C328.41 33.168 329.914 31.952 331.978 31.952C334.074 31.952 335.418 33.216 335.418 35.104C335.418 36.272 334.682 37.248 333.898 37.808V37.888C334.986 38.48 335.882 39.44 335.882 41.056C335.882 42.848 334.298 44.224 331.898 44.224ZM332.65 37.232C333.226 36.624 333.498 35.952 333.498 35.248C333.498 34.288 332.922 33.6 331.93 33.6C331.13 33.6 330.49 34.128 330.49 35.072C330.49 36.192 331.402 36.736 332.65 37.232ZM331.962 42.56C332.954 42.56 333.69 42 333.69 40.976C333.69 39.744 332.602 39.232 331.066 38.608C330.426 39.12 329.978 39.92 329.978 40.8C329.978 41.872 330.858 42.56 331.962 42.56ZM349.411 35.212H342.651C342.625 36.005 342.599 36.811 342.521 37.617H348.293C348.293 37.617 348.293 38.007 348.28 38.176C348.059 42.258 347.838 43.818 347.331 44.377C347.006 44.754 346.655 44.858 346.109 44.91C345.615 44.962 344.731 44.949 343.847 44.897C343.821 44.546 343.652 44.052 343.431 43.714C344.354 43.792 345.277 43.792 345.628 43.792C345.927 43.805 346.083 43.779 346.239 43.636C346.616 43.311 346.811 41.946 346.98 38.787H342.365C341.988 41.283 341.052 43.61 338.556 45.04C338.387 44.715 337.997 44.312 337.685 44.065C341.156 42.193 341.299 38.449 341.403 35.212H338.114V34.029H349.411V35.212ZM357.835 38.696H361.462V35.147H357.835V38.696ZM353.155 35.147V38.696H356.639V35.147H353.155ZM362.684 33.951V43.519C362.684 44.221 362.528 44.585 362.047 44.793C361.579 44.988 360.825 45.014 359.668 45.014C359.616 44.676 359.421 44.13 359.226 43.805C360.058 43.844 360.89 43.831 361.137 43.818C361.384 43.818 361.462 43.74 361.462 43.506V39.892H353.155V45.027H351.946V33.951H362.684Z" fill="#28292B"/>
<line x1="194" y1="37.5" x2="206" y2="37.5" stroke="#28292B"/>
</svg>
