<svg width="81" height="16" viewBox="0 0 81 16" fill="none" xmlns="http://www.w3.org/2000/svg">
<path d="M3.73855 14.169C1.85355 14.169 0.644554 12.505 0.644554 9.177C0.644554 5.862 1.85355 4.25 3.73855 4.25C5.61055 4.25 6.83255 5.875 6.83255 9.177C6.83255 12.505 5.61055 14.169 3.73855 14.169ZM3.73855 12.986C4.71355 12.986 5.40255 11.946 5.40255 9.177C5.40255 6.434 4.71355 5.433 3.73855 5.433C2.76355 5.433 2.07455 6.434 2.07455 9.177C2.07455 11.946 2.76355 12.986 3.73855 12.986ZM13.3496 13.415H18.2636V10.503H13.3496V13.415ZM16.1576 5.446H12.5826C12.3356 5.719 12.0756 6.005 11.7896 6.265C12.5696 6.837 13.4796 7.578 14.0516 8.189C14.9096 7.383 15.6376 6.46 16.1576 5.446ZM19.5116 9.398V15.04H18.2636V14.507H13.3496V15.014H12.1406V11.114C11.1656 11.673 10.1386 12.141 9.09861 12.479C8.95561 12.154 8.64361 11.66 8.40961 11.4C10.0346 10.919 11.6726 10.1 13.0766 9.021C12.5436 8.41 11.6596 7.643 10.8926 7.058C10.3986 7.435 9.86561 7.812 9.29361 8.15C9.11161 7.851 8.72161 7.409 8.43561 7.214C10.5676 6.057 12.0236 4.445 12.7776 3.041L14.1426 3.301C13.9346 3.665 13.7006 4.016 13.4536 4.367H16.7686L16.9896 4.302L17.8086 4.744C17.0936 6.59 15.9236 8.15 14.5196 9.398H19.5116ZM22.0076 9.606V8.514H31.6666C31.0426 8.059 30.2626 7.279 29.7296 6.538L30.6786 6.005C31.5626 7.149 32.8626 8.306 34.0326 9.06C32.8626 9.814 31.5626 10.971 30.6786 12.115L29.7296 11.582C30.2626 10.841 31.0426 10.061 31.6666 9.606H22.0076ZM74.3484 13.415H79.2624V10.503H74.3484V13.415ZM77.1564 5.446H73.5814C73.3344 5.719 73.0744 6.005 72.7884 6.265C73.5684 6.837 74.4784 7.578 75.0504 8.189C75.9084 7.383 76.6364 6.46 77.1564 5.446ZM80.5104 9.398V15.04H79.2624V14.507H74.3484V15.014H73.1394V11.114C72.1644 11.673 71.1374 12.141 70.0974 12.479C69.9544 12.154 69.6424 11.66 69.4084 11.4C71.0334 10.919 72.6714 10.1 74.0754 9.021C73.5424 8.41 72.6584 7.643 71.8914 7.058C71.3974 7.435 70.8644 7.812 70.2924 8.15C70.1104 7.851 69.7204 7.409 69.4344 7.214C71.5664 6.057 73.0224 4.445 73.7764 3.041L75.1414 3.301C74.9334 3.665 74.6994 4.016 74.4524 4.367H77.7674L77.9884 4.302L78.8074 4.744C78.0924 6.59 76.9224 8.15 75.5184 9.398H80.5104Z" fill="#28292B"/>
<path d="M36.4836 14V11.858H39.3456V3.434H36.9336V1.796C38.2656 1.544 39.1836 1.202 40.0296 0.68H41.9916V11.858H44.4936V14H36.4836ZM47.1012 14V12.47C50.7192 9.23 52.8612 6.728 52.8612 4.676C52.8612 3.326 52.1232 2.516 50.8632 2.516C49.8912 2.516 49.0812 3.146 48.4152 3.884L46.9752 2.444C48.1992 1.148 49.3872 0.428 51.2052 0.428C53.7252 0.428 55.3992 2.048 55.3992 4.532C55.3992 6.944 53.4012 9.536 50.9712 11.912C51.6372 11.84 52.5192 11.768 53.1312 11.768H56.0292V14H47.1012ZM62.9568 14.252C60.2388 14.252 58.4388 11.876 58.4388 7.286C58.4388 2.678 60.2388 0.428 62.9568 0.428C65.6568 0.428 67.4568 2.696 67.4568 7.286C67.4568 11.876 65.6568 14.252 62.9568 14.252ZM62.9568 12.182C64.0908 12.182 64.9548 11.03 64.9548 7.286C64.9548 3.56 64.0908 2.48 62.9568 2.48C61.8048 2.48 60.9408 3.56 60.9408 7.286C60.9408 11.03 61.8048 12.182 62.9568 12.182Z" fill="#F74A3F"/>
</svg>
