<svg width="167" height="18" viewBox="0 0 167 18" fill="none" xmlns="http://www.w3.org/2000/svg">
<path d="M3.20769 14.169C1.69969 14.169 0.724694 13.571 0.0876939 12.856L0.815694 11.894C1.37469 12.466 2.08969 12.947 3.07769 12.947C4.15669 12.947 4.89769 12.349 4.89769 11.361C4.89769 10.295 4.22169 9.606 2.06369 9.606V8.501C3.94869 8.501 4.57269 7.786 4.57269 6.824C4.57269 5.979 4.01369 5.446 3.10369 5.433C2.36269 5.446 1.73869 5.81 1.19269 6.343L0.412694 5.407C1.16669 4.731 2.05069 4.25 3.15569 4.25C4.87169 4.25 6.08069 5.134 6.08069 6.72C6.08069 7.825 5.44369 8.592 4.42969 8.969V9.034C5.53469 9.307 6.40569 10.139 6.40569 11.426C6.40569 13.155 4.96269 14.169 3.20769 14.169ZM8.68476 16.6L8.34676 15.755C9.23076 15.391 9.75076 14.741 9.76376 13.974C9.71176 13.987 9.67276 13.987 9.62076 13.987C9.08776 13.987 8.61976 13.649 8.61976 13.025C8.61976 12.44 9.08776 12.063 9.65976 12.063C10.3878 12.063 10.8168 12.674 10.8168 13.675C10.8168 15.04 10.0238 16.093 8.68476 16.6ZM15.7548 14.169C13.8698 14.169 12.6608 12.505 12.6608 9.177C12.6608 5.862 13.8698 4.25 15.7548 4.25C17.6268 4.25 18.8488 5.875 18.8488 9.177C18.8488 12.505 17.6268 14.169 15.7548 14.169ZM15.7548 12.986C16.7298 12.986 17.4188 11.946 17.4188 9.177C17.4188 6.434 16.7298 5.433 15.7548 5.433C14.7798 5.433 14.0908 6.434 14.0908 9.177C14.0908 11.946 14.7798 12.986 15.7548 12.986ZM23.6889 14.169C21.8039 14.169 20.5949 12.505 20.5949 9.177C20.5949 5.862 21.8039 4.25 23.6889 4.25C25.5609 4.25 26.7829 5.875 26.7829 9.177C26.7829 12.505 25.5609 14.169 23.6889 14.169ZM23.6889 12.986C24.6639 12.986 25.3529 11.946 25.3529 9.177C25.3529 6.434 24.6639 5.433 23.6889 5.433C22.7139 5.433 22.0249 6.434 22.0249 9.177C22.0249 11.946 22.7139 12.986 23.6889 12.986ZM31.623 14.169C29.738 14.169 28.529 12.505 28.529 9.177C28.529 5.862 29.738 4.25 31.623 4.25C33.495 4.25 34.717 5.875 34.717 9.177C34.717 12.505 33.495 14.169 31.623 14.169ZM31.623 12.986C32.598 12.986 33.287 11.946 33.287 9.177C33.287 6.434 32.598 5.433 31.623 5.433C30.648 5.433 29.959 6.434 29.959 9.177C29.959 11.946 30.648 12.986 31.623 12.986ZM41.234 13.415H46.148V10.503H41.234V13.415ZM44.042 5.446H40.467C40.22 5.719 39.96 6.005 39.674 6.265C40.454 6.837 41.364 7.578 41.936 8.189C42.794 7.383 43.522 6.46 44.042 5.446ZM47.396 9.398V15.04H46.148V14.507H41.234V15.014H40.025V11.114C39.05 11.673 38.023 12.141 36.983 12.479C36.84 12.154 36.528 11.66 36.294 11.4C37.919 10.919 39.557 10.1 40.961 9.021C40.428 8.41 39.544 7.643 38.777 7.058C38.283 7.435 37.75 7.812 37.178 8.15C36.996 7.851 36.606 7.409 36.32 7.214C38.452 6.057 39.908 4.445 40.662 3.041L42.027 3.301C41.819 3.665 41.585 4.016 41.338 4.367H44.653L44.874 4.302L45.693 4.744C44.978 6.59 43.808 8.15 42.404 9.398H47.396ZM49.892 9.606V8.514H59.551C58.927 8.059 58.147 7.279 57.614 6.538L58.563 6.005C59.447 7.149 60.747 8.306 61.917 9.06C60.747 9.814 59.447 10.971 58.563 12.115L57.614 11.582C58.147 10.841 58.927 10.061 59.551 9.606H49.892ZM160.658 13.415H165.572V10.503H160.658V13.415ZM163.466 5.446H159.891C159.644 5.719 159.384 6.005 159.098 6.265C159.878 6.837 160.788 7.578 161.36 8.189C162.218 7.383 162.946 6.46 163.466 5.446ZM166.82 9.398V15.04H165.572V14.507H160.658V15.014H159.449V11.114C158.474 11.673 157.447 12.141 156.407 12.479C156.264 12.154 155.952 11.66 155.718 11.4C157.343 10.919 158.981 10.1 160.385 9.021C159.852 8.41 158.968 7.643 158.201 7.058C157.707 7.435 157.174 7.812 156.602 8.15C156.42 7.851 156.03 7.409 155.744 7.214C157.876 6.057 159.332 4.445 160.086 3.041L161.451 3.301C161.243 3.665 161.009 4.016 160.762 4.367H164.077L164.298 4.302L165.117 4.744C164.402 6.59 163.232 8.15 161.828 9.398H166.82Z" fill="#28292B"/>
<path d="M63.666 14V12.47C67.284 9.23 69.426 6.728 69.426 4.676C69.426 3.326 68.688 2.516 67.428 2.516C66.456 2.516 65.646 3.146 64.98 3.884L63.54 2.444C64.764 1.148 65.952 0.428 67.77 0.428C70.29 0.428 71.964 2.048 71.964 4.532C71.964 6.944 69.966 9.536 67.536 11.912C68.202 11.84 69.084 11.768 69.696 11.768H72.594V14H63.666ZM75.7236 17.834L75.1656 16.394C76.5516 15.872 77.3256 14.972 77.3256 13.928C77.2716 13.928 77.2176 13.928 77.1636 13.928C76.2996 13.928 75.5076 13.37 75.5076 12.362C75.5076 11.408 76.2816 10.796 77.2176 10.796C78.4416 10.796 79.1256 11.768 79.1256 13.406C79.1256 15.512 77.8836 17.114 75.7236 17.834ZM86.0951 14.252C83.3771 14.252 81.5771 11.876 81.5771 7.286C81.5771 2.678 83.3771 0.428 86.0951 0.428C88.7951 0.428 90.5951 2.696 90.5951 7.286C90.5951 11.876 88.7951 14.252 86.0951 14.252ZM86.0951 12.182C87.2291 12.182 88.0931 11.03 88.0931 7.286C88.0931 3.56 87.2291 2.48 86.0951 2.48C84.9431 2.48 84.0791 3.56 84.0791 7.286C84.0791 11.03 84.9431 12.182 86.0951 12.182ZM97.4148 14.252C94.6968 14.252 92.8968 11.876 92.8968 7.286C92.8968 2.678 94.6968 0.428 97.4148 0.428C100.115 0.428 101.915 2.696 101.915 7.286C101.915 11.876 100.115 14.252 97.4148 14.252ZM97.4148 12.182C98.5488 12.182 99.4128 11.03 99.4128 7.286C99.4128 3.56 98.5488 2.48 97.4148 2.48C96.2628 2.48 95.3988 3.56 95.3988 7.286C95.3988 11.03 96.2628 12.182 97.4148 12.182ZM108.734 14.252C106.016 14.252 104.216 11.876 104.216 7.286C104.216 2.678 106.016 0.428 108.734 0.428C111.434 0.428 113.234 2.696 113.234 7.286C113.234 11.876 111.434 14.252 108.734 14.252ZM108.734 12.182C109.868 12.182 110.732 11.03 110.732 7.286C110.732 3.56 109.868 2.48 108.734 2.48C107.582 2.48 106.718 3.56 106.718 7.286C106.718 11.03 107.582 12.182 108.734 12.182ZM116.256 17.834L115.698 16.394C117.084 15.872 117.858 14.972 117.858 13.928C117.804 13.928 117.75 13.928 117.696 13.928C116.832 13.928 116.04 13.37 116.04 12.362C116.04 11.408 116.814 10.796 117.75 10.796C118.974 10.796 119.658 11.768 119.658 13.406C119.658 15.512 118.416 17.114 116.256 17.834ZM126.627 14.252C123.909 14.252 122.109 11.876 122.109 7.286C122.109 2.678 123.909 0.428 126.627 0.428C129.327 0.428 131.127 2.696 131.127 7.286C131.127 11.876 129.327 14.252 126.627 14.252ZM126.627 12.182C127.761 12.182 128.625 11.03 128.625 7.286C128.625 3.56 127.761 2.48 126.627 2.48C125.475 2.48 124.611 3.56 124.611 7.286C124.611 11.03 125.475 12.182 126.627 12.182ZM137.947 14.252C135.229 14.252 133.429 11.876 133.429 7.286C133.429 2.678 135.229 0.428 137.947 0.428C140.647 0.428 142.447 2.696 142.447 7.286C142.447 11.876 140.647 14.252 137.947 14.252ZM137.947 12.182C139.081 12.182 139.945 11.03 139.945 7.286C139.945 3.56 139.081 2.48 137.947 2.48C136.795 2.48 135.931 3.56 135.931 7.286C135.931 11.03 136.795 12.182 137.947 12.182ZM149.267 14.252C146.549 14.252 144.749 11.876 144.749 7.286C144.749 2.678 146.549 0.428 149.267 0.428C151.967 0.428 153.767 2.696 153.767 7.286C153.767 11.876 151.967 14.252 149.267 14.252ZM149.267 12.182C150.401 12.182 151.265 11.03 151.265 7.286C151.265 3.56 150.401 2.48 149.267 2.48C148.115 2.48 147.251 3.56 147.251 7.286C147.251 11.03 148.115 12.182 149.267 12.182Z" fill="#F74A3F"/>
</svg>
