<svg width="114" height="18" viewBox="0 0 114 18" fill="none" xmlns="http://www.w3.org/2000/svg">
<path d="M3.37093 14.169C1.57693 14.169 0.250931 13.103 0.250931 11.621C0.250931 10.36 1.08293 9.515 1.96693 9.047V8.982C1.25193 8.475 0.679931 7.76 0.679931 6.746C0.679931 5.251 1.84993 4.276 3.40993 4.276C5.07393 4.276 6.11393 5.316 6.11393 6.811C6.11393 7.786 5.45093 8.618 4.85293 9.06V9.125C5.71093 9.606 6.46493 10.36 6.46493 11.66C6.46493 13.077 5.21693 14.169 3.37093 14.169ZM3.99493 8.683C4.56693 8.15 4.85293 7.539 4.85293 6.902C4.85293 6.018 4.31993 5.355 3.38393 5.355C2.60393 5.355 2.01893 5.888 2.01893 6.746C2.01893 7.786 2.92893 8.267 3.99493 8.683ZM3.39693 13.09C4.38493 13.09 5.04793 12.518 5.04793 11.621C5.04793 10.451 3.99493 10.009 2.69493 9.476C2.03193 9.931 1.57693 10.646 1.57693 11.478C1.57693 12.427 2.36993 13.09 3.39693 13.09ZM11.292 14.169C9.41999 14.169 8.19799 12.505 8.19799 9.177C8.19799 5.862 9.41999 4.25 11.292 4.25C13.164 4.25 14.386 5.875 14.386 9.177C14.386 12.505 13.164 14.169 11.292 14.169ZM11.292 12.986C12.267 12.986 12.956 11.946 12.956 9.177C12.956 6.434 12.267 5.433 11.292 5.433C10.317 5.433 9.62799 6.434 9.62799 9.177C9.62799 11.946 10.317 12.986 11.292 12.986ZM19.2261 14.169C17.3541 14.169 16.1321 12.505 16.1321 9.177C16.1321 5.862 17.3541 4.25 19.2261 4.25C21.0981 4.25 22.3201 5.875 22.3201 9.177C22.3201 12.505 21.0981 14.169 19.2261 14.169ZM19.2261 12.986C20.2011 12.986 20.8901 11.946 20.8901 9.177C20.8901 6.434 20.2011 5.433 19.2261 5.433C18.2511 5.433 17.5621 6.434 17.5621 9.177C17.5621 11.946 18.2511 12.986 19.2261 12.986ZM28.8371 13.415H33.7511V10.503H28.8371V13.415ZM31.6451 5.446H28.0701C27.8231 5.719 27.5631 6.005 27.2771 6.265C28.0571 6.837 28.9671 7.578 29.5391 8.189C30.3971 7.383 31.1251 6.46 31.6451 5.446ZM34.9991 9.398V15.04H33.7511V14.507H28.8371V15.014H27.6281V11.114C26.6531 11.673 25.6261 12.141 24.5861 12.479C24.4431 12.154 24.1311 11.66 23.8971 11.4C25.5221 10.919 27.1601 10.1 28.5641 9.021C28.0311 8.41 27.1471 7.643 26.3801 7.058C25.8861 7.435 25.3531 7.812 24.7811 8.15C24.5991 7.851 24.2091 7.409 23.9231 7.214C26.0551 6.057 27.5111 4.445 28.2651 3.041L29.6301 3.301C29.4221 3.665 29.1881 4.016 28.9411 4.367H32.2561L32.4771 4.302L33.2961 4.744C32.5811 6.59 31.4111 8.15 30.0071 9.398H34.9991ZM47.1541 8.514C46.5301 8.059 45.7501 7.279 45.2171 6.538L46.1661 6.005C47.0501 7.149 48.3501 8.306 49.5201 9.06C48.3501 9.814 47.0501 10.971 46.1661 12.115L45.2171 11.582C45.7501 10.841 46.5301 10.061 47.1541 9.606H37.4951V8.514H47.1541ZM107.729 13.415H112.643V10.503H107.729V13.415ZM110.537 5.446H106.962C106.715 5.719 106.455 6.005 106.169 6.265C106.949 6.837 107.859 7.578 108.431 8.189C109.289 7.383 110.017 6.46 110.537 5.446ZM113.891 9.398V15.04H112.643V14.507H107.729V15.014H106.52V11.114C105.545 11.673 104.518 12.141 103.478 12.479C103.335 12.154 103.023 11.66 102.789 11.4C104.414 10.919 106.052 10.1 107.456 9.021C106.923 8.41 106.039 7.643 105.272 7.058C104.778 7.435 104.245 7.812 103.673 8.15C103.491 7.851 103.101 7.409 102.815 7.214C104.947 6.057 106.403 4.445 107.157 3.041L108.522 3.301C108.314 3.665 108.08 4.016 107.833 4.367H111.148L111.369 4.302L112.188 4.744C111.473 6.59 110.303 8.15 108.899 9.398H113.891Z" fill="#28292B"/>
<path d="M56.0391 7.484C55.3191 7.484 54.4731 7.88 53.8611 8.888C54.1131 11.318 55.0131 12.254 56.1291 12.254C57.1191 12.254 57.9471 11.426 57.9471 9.788C57.9471 8.222 57.1911 7.484 56.0391 7.484ZM56.1831 14.252C53.6451 14.252 51.3951 12.218 51.3951 7.52C51.3951 2.552 53.8611 0.428 56.5431 0.428C58.1811 0.428 59.3511 1.112 60.1611 1.94L58.7571 3.524C58.2891 2.984 57.4791 2.552 56.7051 2.552C55.1751 2.552 53.9151 3.704 53.8071 7.052C54.5271 6.152 55.6791 5.612 56.5431 5.612C58.7751 5.612 60.3591 6.944 60.3591 9.788C60.3591 12.524 58.4511 14.252 56.1831 14.252ZM63.3267 17.834L62.7687 16.394C64.1727 15.872 64.9467 14.936 64.9287 13.928C64.8747 13.928 64.8207 13.928 64.7667 13.928C63.9027 13.928 63.1107 13.37 63.1107 12.362C63.1107 11.408 63.8847 10.796 64.8207 10.796C66.0447 10.796 66.7287 11.768 66.7287 13.406C66.7287 15.512 65.5047 17.114 63.3267 17.834ZM73.3562 14.252C71.2502 14.252 69.8462 13.424 68.8562 12.434L70.0802 10.742C70.8362 11.48 71.7722 12.092 73.0142 12.092C74.4002 12.092 75.3722 11.21 75.3722 9.644C75.3722 8.096 74.4722 7.232 73.1222 7.232C72.3302 7.232 71.8982 7.43 71.1242 7.934L69.9182 7.142L70.2782 0.661999H77.4062V2.894H72.5642L72.3122 5.72C72.8522 5.468 73.3022 5.342 73.9142 5.342C76.1462 5.342 78.0182 6.674 78.0182 9.572C78.0182 12.542 75.8222 14.252 73.3562 14.252ZM85.0179 14.252C82.2999 14.252 80.4999 11.876 80.4999 7.286C80.4999 2.678 82.2999 0.428 85.0179 0.428C87.7359 0.428 89.5179 2.696 89.5179 7.286C89.5179 11.876 87.7359 14.252 85.0179 14.252ZM85.0179 12.182C86.1699 12.182 87.0159 11.03 87.0159 7.286C87.0159 3.56 86.1699 2.48 85.0179 2.48C83.8659 2.48 83.0019 3.56 83.0019 7.286C83.0019 11.03 83.8659 12.182 85.0179 12.182ZM96.3375 14.252C93.6195 14.252 91.8195 11.876 91.8195 7.286C91.8195 2.678 93.6195 0.428 96.3375 0.428C99.0555 0.428 100.837 2.696 100.837 7.286C100.837 11.876 99.0555 14.252 96.3375 14.252ZM96.3375 12.182C97.4895 12.182 98.3355 11.03 98.3355 7.286C98.3355 3.56 97.4895 2.48 96.3375 2.48C95.1855 2.48 94.3215 3.56 94.3215 7.286C94.3215 11.03 95.1855 12.182 96.3375 12.182Z" fill="#F74A3F"/>
</svg>
